0
SECTION
2
HEADER
9
$INSUNITS
70
4
0
ENDSEC
0
SECTION
2
TABLES
0
TABLE
2
LTYPE
0
LTYPE
72
65
70
64
2
CONTINUOUS
3
______
73
0
40
0
0
ENDTAB
0
TABLE
2
LAYER
0
ENDTAB
0
ENDSEC
0
SECTION
2
ENTITIES
0
LINE
8
front_outsideCutPath
10
0
20
39
11
0
21
30
0
LINE
8
front_outsideCutPath
10
0
20
30
11
3
21
30
0
LINE
8
front_outsideCutPath
10
3
20
30
11
3
21
24
0
LINE
8
front_outsideCutPath
10
3
20
24
11
0
21
24
0
LINE
8
front_outsideCutPath
10
0
20
24
11
0
21
18
0
LINE
8
front_outsideCutPath
10
0
20
18
11
3
21
18
0
LINE
8
front_outsideCutPath
10
3
20
18
11
3
21
12
0
LINE
8
front_outsideCutPath
10
3
20
12
11
0
21
12
0
LINE
8
front_outsideCutPath
10
0
20
12
11
0
21
6
0
LINE
8
front_outsideCutPath
10
0
20
6
11
0
21
3
0
LINE
8
front_outsideCutPath
10
0
20
3
11
9
21
3
0
LINE
8
front_outsideCutPath
10
9
20
3
11
9
21
6
0
LINE
8
front_outsideCutPath
10
9
20
6
11
15
21
6
0
LINE
8
front_outsideCutPath
10
15
20
6
11
15
21
3
0
LINE
8
front_outsideCutPath
10
15
20
3
11
21
21
3
0
LINE
8
front_outsideCutPath
10
21
20
3
11
21
21
6
0
LINE
8
front_outsideCutPath
10
21
20
6
11
27
21
6
0
LINE
8
front_outsideCutPath
10
27
20
6
11
27
21
3
0
LINE
8
front_outsideCutPath
10
27
20
3
11
33
21
3
0
LINE
8
front_outsideCutPath
10
33
20
3
11
33
21
6
0
LINE
8
front_outsideCutPath
10
33
20
6
11
39
21
6
0
LINE
8
front_outsideCutPath
10
39
20
6
11
39
21
3
0
LINE
8
front_outsideCutPath
10
39
20
3
11
45
21
3
0
LINE
8
front_outsideCutPath
10
45
20
3
11
45
21
6
0
LINE
8
front_outsideCutPath
10
45
20
6
11
51
21
6
0
LINE
8
front_outsideCutPath
10
51
20
6
11
51
21
3
0
LINE
8
front_outsideCutPath
10
51
20
3
11
57
21
3
0
LINE
8
front_outsideCutPath
10
57
20
3
11
57
21
6
0
LINE
8
front_outsideCutPath
10
57
20
6
11
63
21
6
0
LINE
8
front_outsideCutPath
10
63
20
6
11
63
21
3
0
LINE
8
front_outsideCutPath
10
63
20
3
11
69
21
3
0
LINE
8
front_outsideCutPath
10
69
20
3
11
69
21
6
0
LINE
8
front_outsideCutPath
10
69
20
6
11
75
21
6
0
LINE
8
front_outsideCutPath
10
75
20
6
11
75
21
3
0
LINE
8
front_outsideCutPath
10
75
20
3
11
81
21
3
0
LINE
8
front_outsideCutPath
10
81
20
3
11
81
21
6
0
LINE
8
front_outsideCutPath
10
81
20
6
11
87
21
6
0
LINE
8
front_outsideCutPath
10
87
20
6
11
87
21
3
0
LINE
8
front_outsideCutPath
10
87
20
3
11
93
21
3
0
LINE
8
front_outsideCutPath
10
93
20
3
11
93
21
6
0
LINE
8
front_outsideCutPath
10
93
20
6
11
99
21
6
0
LINE
8
front_outsideCutPath
10
99
20
6
11
99
21
3
0
LINE
8
front_outsideCutPath
10
99
20
3
11
105
21
3
0
LINE
8
front_outsideCutPath
10
105
20
3
11
105
21
6
0
LINE
8
front_outsideCutPath
10
105
20
6
11
111
21
6
0
LINE
8
front_outsideCutPath
10
111
20
6
11
111
21
3
0
LINE
8
front_outsideCutPath
10
111
20
3
11
117
21
3
0
LINE
8
front_outsideCutPath
10
117
20
3
11
120
21
3
0
LINE
8
front_outsideCutPath
10
120
20
3
11
120
21
12
0
LINE
8
front_outsideCutPath
10
120
20
12
11
117
21
12
0
LINE
8
front_outsideCutPath
10
117
20
12
11
117
21
18
0
LINE
8
front_outsideCutPath
10
117
20
18
11
120
21
18
0
LINE
8
front_outsideCutPath
10
120
20
18
11
120
21
24
0
LINE
8
front_outsideCutPath
10
120
20
24
11
117
21
24
0
LINE
8
front_outsideCutPath
10
117
20
24
11
117
21
30
0
LINE
8
front_outsideCutPath
10
117
20
30
11
120
21
30
0
LINE
8
front_outsideCutPath
10
120
20
30
11
120
21
36
0
LINE
8
front_outsideCutPath
10
120
20
36
11
120
21
39
0
LINE
8
front_outsideCutPath
10
120
20
39
11
111
21
39
0
LINE
8
front_outsideCutPath
10
111
20
39
11
111
21
36
0
LINE
8
front_outsideCutPath
10
111
20
36
11
105
21
36
0
LINE
8
front_outsideCutPath
10
105
20
36
11
105
21
39
0
LINE
8
front_outsideCutPath
10
105
20
39
11
99
21
39
0
LINE
8
front_outsideCutPath
10
99
20
39
11
99
21
36
0
LINE
8
front_outsideCutPath
10
99
20
36
11
93
21
36
0
LINE
8
front_outsideCutPath
10
93
20
36
11
93
21
39
0
LINE
8
front_outsideCutPath
10
93
20
39
11
87
21
39
0
LINE
8
front_outsideCutPath
10
87
20
39
11
87
21
36
0
LINE
8
front_outsideCutPath
10
87
20
36
11
81
21
36
0
LINE
8
front_outsideCutPath
10
81
20
36
11
81
21
39
0
LINE
8
front_outsideCutPath
10
81
20
39
11
75
21
39
0
LINE
8
front_outsideCutPath
10
75
20
39
11
75
21
36
0
LINE
8
front_outsideCutPath
10
75
20
36
11
69
21
36
0
LINE
8
front_outsideCutPath
10
69
20
36
11
69
21
39
0
LINE
8
front_outsideCutPath
10
69
20
39
11
63
21
39
0
LINE
8
front_outsideCutPath
10
63
20
39
11
63
21
36
0
LINE
8
front_outsideCutPath
10
63
20
36
11
57
21
36
0
LINE
8
front_outsideCutPath
10
57
20
36
11
57
21
39
0
LINE
8
front_outsideCutPath
10
57
20
39
11
51
21
39
0
LINE
8
front_outsideCutPath
10
51
20
39
11
51
21
36
0
LINE
8
front_outsideCutPath
10
51
20
36
11
45
21
36
0
LINE
8
front_outsideCutPath
10
45
20
36
11
45
21
39
0
LINE
8
front_outsideCutPath
10
45
20
39
11
39
21
39
0
LINE
8
front_outsideCutPath
10
39
20
39
11
39
21
36
0
LINE
8
front_outsideCutPath
10
39
20
36
11
33
21
36
0
LINE
8
front_outsideCutPath
10
33
20
36
11
33
21
39
0
LINE
8
front_outsideCutPath
10
33
20
39
11
27
21
39
0
LINE
8
front_outsideCutPath
10
27
20
39
11
27
21
36
0
LINE
8
front_outsideCutPath
10
27
20
36
11
21
21
36
0
LINE
8
front_outsideCutPath
10
21
20
36
11
21
21
39
0
LINE
8
front_outsideCutPath
10
21
20
39
11
15
21
39
0
LINE
8
front_outsideCutPath
10
15
20
39
11
15
21
36
0
LINE
8
front_outsideCutPath
10
15
20
36
11
9
21
36
0
LINE
8
front_outsideCutPath
10
9
20
36
11
9
21
39
0
LINE
8
front_outsideCutPath
10
9
20
39
11
3
21
39
0
LINE
8
front_outsideCutPath
10
3
20
39
11
0
21
39
0
LINE
8
front_labelLayer
10
54.0357422
20
22.1338653
11
54.0357422
21
21.6803497
0
LINE
8
front_labelLayer
10
54.0357422
20
21.6803497
11
53.0548828
21
21.6803497
0
LINE
8
front_labelLayer
10
53.0548828
20
21.6803497
11
53.0548828
21
18.2807403
0
LINE
8
front_labelLayer
10
53.0548828
20
18.2807403
11
52.4712891
21
18.2807403
0
LINE
8
front_labelLayer
10
52.4712891
20
18.2807403
11
52.4712891
21
21.6803497
0
LINE
8
front_labelLayer
10
52.4712891
20
21.6803497
11
51.7822266
21
21.6803497
0
LINE
8
front_labelLayer
10
51.7822266
20
21.6803497
11
51.7822266
21
21.9440216
0
LINE
8
front_labelLayer
10
51.7822266
20
21.9440216
11
52.4712891
21
22.1549591
0
LINE
8
front_labelLayer
10
52.4712891
20
22.1549591
11
52.4712891
21
22.3694122
0
LINE
8
front_labelLayer
10
54.4294922
20
23.6666778
11
54.2783203
21
23.1990997
0
LINE
8
front_labelLayer
10
53.0548828
20
22.3834747
11
53.0548828
21
22.1338653
0
LINE
8
front_labelLayer
10
53.0548828
20
22.1338653
11
54.0357422
21
22.1338653
0
ARC
8
front_labelLayer
10
54.8363979
20
22.3966025
40
2.3652651
50
167.5776333
51
180.6586691
0
ARC
8
front_labelLayer
10
53.7241688
20
22.6559081
40
1.2233739
50
141.7433776
51
168.2321968
0
ARC
8
front_labelLayer
10
53.5430767
20
22.7504246
40
1.0233515
50
98.2551563
51
139.6203282
0
ARC
8
front_labelLayer
10
53.7020783
20
22.0158962
40
1.7738579
50
89.6696863
51
99.9314259
0
ARC
8
front_labelLayer
10
53.7025235
20
21.910451
40
1.8792991
50
81.5641037
51
89.7017911
0
ARC
8
front_labelLayer
10
53.5703982
20
20.9886864
40
2.8104775
50
75.974006
51
81.6564469
0
ARC
8
front_labelLayer
10
53.3437232
20
20.0484732
40
3.7776048
50
73.2962867
51
76.0946637
0
ARC
8
front_labelLayer
10
53.4007772
20
20.5044863
40
2.8339059
50
71.9613487
51
76.5918567
0
ARC
8
front_labelLayer
10
53.620634
20
21.4371411
40
1.8756925
50
76.5183747
51
83.0217245
0
ARC
8
front_labelLayer
10
53.6972166
20
22.0530018
40
1.2550903
50
83.0761646
51
89.7926924
0
ARC
8
front_labelLayer
10
53.6946962
20
22.5210735
40
0.7870422
50
89.4859156
51
103.4196957
0
ARC
8
front_labelLayer
10
53.6237388
20
22.7936867
40
0.5054371
50
102.7677221
51
144.3380431
0
ARC
8
front_labelLayer
10
53.7666931
20
22.7017095
40
0.6752611
50
145.0689431
51
162.1801316
0
ARC
8
front_labelLayer
10
54.2568284
20
22.5368051
40
1.1923669
50
161.8438152
51
171.7846219
0
ARC
8
front_labelLayer
10
55.0562255
20
22.416741
40
2.0007223
50
171.6528174
51
178.4383562
0
ARC
8
front_labelLayer
10
55.8099035
20
22.3845951
40
2.7550209
50
178.1972278
51
180.0233004
0
LINE
8
front_labelLayer
10
56.9572266
20
22.1619903
11
56.8763672
21
21.6205841
0
LINE
8
front_labelLayer
10
55.3224609
20
20.3479278
11
55.3224609
21
18.2807403
0
LINE
8
front_labelLayer
10
55.3224609
20
18.2807403
11
54.7388672
21
18.2807403
0
LINE
8
front_labelLayer
10
54.7388672
20
18.2807403
11
54.7388672
21
22.1338653
0
LINE
8
front_labelLayer
10
54.7388672
20
22.1338653
11
55.2205078
21
22.1338653
0
LINE
8
front_labelLayer
10
55.2205078
20
22.1338653
11
55.2873047
21
21.4201934
0
LINE
8
front_labelLayer
10
55.2873047
20
21.4201934
11
55.3154297
21
21.4201934
0
ARC
8
front_labelLayer
10
56.5026677
20
19.524931
40
2.6792535
50
84.9923694
51
90.1280534
0
ARC
8
front_labelLayer
10
56.5670149
20
20.2458947
40
1.9554252
50
78.4891569
51
85.0266452
0
ARC
8
front_labelLayer
10
56.3172767
20
19.1100275
40
2.5720568
50
77.445335
51
81.6359849
0
ARC
8
front_labelLayer
10
56.4293378
20
19.8824355
40
1.7915641
50
81.5884458
51
87.1916113
0
ARC
8
front_labelLayer
10
56.4536839
20
20.304722
40
1.3685967
50
87.3434322
51
89.9661612
0
ARC
8
front_labelLayer
10
56.4480244
20
20.6621442
40
1.0111949
50
89.6335219
51
137.08808
0
ARC
8
front_labelLayer
10
56.6961723
20
20.3830908
40
1.3833922
50
135.6208629
51
138.8377363
0
ARC
8
front_labelLayer
10
56.6598253
20
20.4185699
40
1.3326792
50
138.9575576
51
174.542238
0
ARC
8
front_labelLayer
10
57.0938494
20
20.3506589
40
1.7713904
50
173.6908091
51
180.088336
0
ARC
8
front_labelLayer
10
57.0324772
20
20.4528185
40
1.9708035
50
139.4139096
51
150.6033337
0
ARC
8
front_labelLayer
10
56.67912
20
20.7556083
40
1.5054616
50
124.2321445
51
139.4160732
0
ARC
8
front_labelLayer
10
56.4901757
20
21.0408181
40
1.1633778
50
89.6796785
51
124.4405395
0
ARC
8
front_labelLayer
10
57.9892794
20
20.1904961
40
3.0145
50
349.1761888
51
0.3862636
0
ARC
8
front_labelLayer
10
59.0041922
20
19.9881709
40
1.9796654
50
330.250691
51
349.4116556
0
ARC
8
front_labelLayer
10
59.3165179
20
19.8258374
40
1.6280125
50
318.1440342
51
329.7565931
0
ARC
8
front_labelLayer
10
59.3729012
20
19.780653
40
1.555872
50
278.8959068
51
317.9979147
0
ARC
8
front_labelLayer
10
59.2276501
20
20.4765656
40
2.2661593
50
269.7502859
51
279.8033112
0
ARC
8
front_labelLayer
10
59.2040931
20
20.0844586
40
1.8740807
50
253.5436747
51
270.4182492
0
ARC
8
front_labelLayer
10
59.1417057
20
19.8431357
40
1.6249925
50
238.8115248
51
253.2428692
0
ARC
8
front_labelLayer
10
59.1215744
20
19.802653
40
1.5799401
50
207.7946948
51
238.6758056
0
ARC
8
front_labelLayer
10
59.4104374
20
19.9795707
40
1.9180968
50
205.655948
51
208.4461251
0
ARC
8
front_labelLayer
10
59.6330058
20
20.0723122
40
2.158914
50
188.9102383
51
205.3171333
0
ARC
8
front_labelLayer
10
60.3829425
20
20.1993278
40
2.9194887
50
179.7744929
51
189.0932926
0
ARC
8
front_labelLayer
10
60.4935641
20
20.2313422
40
3.030157
50
169.2442997
51
180.3880773
0
ARC
8
front_labelLayer
10
59.4645458
20
20.4347412
40
1.9812734
50
150.7111378
51
169.4695322
0
ARC
8
front_labelLayer
10
59.1360554
20
20.6034328
40
1.6123068
50
138.1759619
51
150.228725
0
ARC
8
front_labelLayer
10
59.0814087
20
20.6453676
40
1.5436291
50
99.1759226
51
137.9832748
0
ARC
8
front_labelLayer
10
59.2318059
20
19.937591
40
2.2666116
50
89.7326343
51
100.0760154
0
ARC
8
front_labelLayer
10
59.261865
20
20.2432547
40
1.9610198
50
73.5222493
51
90.5692279
0
ARC
8
front_labelLayer
10
59.3768671
20
20.6610855
40
1.5277521
50
41.1445659
51
73.213378
0
ARC
8
front_labelLayer
10
59.1573363
20
20.472402
40
1.8172183
50
13.5014443
51
41.0703368
0
ARC
8
front_labelLayer
10
58.3091768
20
20.2504507
40
2.6938158
50
1.1277479
51
13.8799936
0
ARC
8
front_labelLayer
10
57.5789882
20
20.2113099
40
3.4247227
50
359.9917778
51
1.54202
0
ARC
8
front_labelLayer
10
61.0234149
20
20.1956507
40
2.9552897
50
179.7059343
51
187.9160987
0
ARC
8
front_labelLayer
10
59.9395146
20
20.0399473
40
1.8602808
50
187.7638921
51
200.0976763
0
ARC
8
front_labelLayer
10
59.3423944
20
19.8211619
40
1.2243408
50
200.0845855
51
216.9131438
0
ARC
8
front_labelLayer
10
59.124345
20
19.6654654
40
0.95651
50
217.3009782
51
261.7098983
0
ARC
8
front_labelLayer
10
59.2255705
20
20.1485115
40
1.4494253
50
260.5033677
51
270.2476743
0
ARC
8
front_labelLayer
10
59.2448907
20
20.0545802
40
1.3555434
50
269.4481947
51
284.7255444
0
ARC
8
front_labelLayer
10
59.3522012
20
19.6565979
40
0.9433595
50
284.5662313
51
322.6333548
0
ARC
8
front_labelLayer
10
59.1013046
20
19.8378584
40
1.2528003
50
323.0089482
51
342.6390642
0
ARC
8
front_labelLayer
10
58.3836782
20
20.0723982
40
2.0077425
50
342.3616079
51
353.7537392
0
ARC
8
front_labelLayer
10
57.3249464
20
20.2000118
40
3.0740959
50
353.5363452
51
0.2014174
0
ARC
8
front_labelLayer
10
57.4871805
20
20.2256806
40
2.9118808
50
359.7075632
51
7.8972829
0
ARC
8
front_labelLayer
10
58.553593
20
20.378561
40
1.8345835
50
7.7439996
51
20.06905
0
ARC
8
front_labelLayer
10
59.1478366
20
20.5966272
40
1.201593
50
20.0257036
51
37.4350391
0
ARC
8
front_labelLayer
10
59.3450039
20
20.7365337
40
0.9600298
50
37.9577745
51
80.4006157
0
ARC
8
front_labelLayer
10
59.2329605
20
20.2366041
40
1.4718931
50
79.3453653
51
90.3174806
0
ARC
8
front_labelLayer
10
59.2122141
20
20.3196422
40
1.3888896
50
89.4805963
51
103.8804613
0
ARC
8
front_labelLayer
10
59.095512
20
20.7640482
40
0.9294883
50
103.4685274
51
142.3118942
0
ARC
8
front_labelLayer
10
59.3223874
20
20.6044931
40
1.2066365
50
142.9025628
51
162.3750066
0
ARC
8
front_labelLayer
10
60.037294
20
20.3662522
40
1.9601491
50
162.0653376
51
173.1674557
0
ARC
8
front_labelLayer
10
61.151996
20
20.2240797
40
3.0838604
50
173.0086217
51
180.2463849
0
LINE
8
front_labelLayer
10
65.2470703
20
18.2807403
11
64.6634766
21
18.2807403
0
LINE
8
front_labelLayer
10
64.6634766
20
18.2807403
11
64.6634766
21
20.7733184
0
LINE
8
front_labelLayer
10
62.6103516
20
20.3022247
11
62.6103516
21
18.2807403
0
LINE
8
front_labelLayer
10
62.6103516
20
18.2807403
11
62.0267578
21
18.2807403
0
LINE
8
front_labelLayer
10
62.0267578
20
18.2807403
11
62.0267578
21
22.1338653
0
LINE
8
front_labelLayer
10
62.0267578
20
22.1338653
11
62.5013672
21
22.1338653
0
LINE
8
front_labelLayer
10
62.5013672
20
22.1338653
11
62.5962891
21
21.6065216
0
LINE
8
front_labelLayer
10
62.5962891
20
21.6065216
11
62.6244141
21
21.6065216
0
LINE
8
front_labelLayer
10
65.2470703
20
20.7944122
11
65.2470703
21
18.2807403
0
ARC
8
front_labelLayer
10
63.0138358
20
20.7827793
40
1.6496679
50
359.6714069
51
8.6877457
0
ARC
8
front_labelLayer
10
63.6252451
20
20.8797451
40
1.0306331
50
8.4931545
51
22.6579838
0
ARC
8
front_labelLayer
10
63.9358914
20
21.008841
40
0.6942309
50
22.7023626
51
42.3420094
0
ARC
8
front_labelLayer
10
63.9708048
20
21.024545
40
0.6579554
50
43.3790917
51
71.5385722
0
ARC
8
front_labelLayer
10
63.8402302
20
20.6596813
40
1.0454236
50
71.0828628
51
84.3690894
0
ARC
8
front_labelLayer
10
63.7816164
20
20.161294
40
1.547186
50
84.0198998
51
90.1509945
0
ARC
8
front_labelLayer
10
63.7650021
20
19.9422533
40
1.7662659
50
89.5933098
51
100.3718126
0
ARC
8
front_labelLayer
10
63.6401808
20
20.597145
40
1.0996137
50
100.1176351
51
118.1602749
0
ARC
8
front_labelLayer
10
63.5143952
20
20.8438013
40
0.8228091
50
118.5439952
51
139.1926649
0
ARC
8
front_labelLayer
10
63.6240716
20
20.7702076
40
0.9540529
50
140.1518805
51
160.3146521
0
ARC
8
front_labelLayer
10
64.286394
20
20.5221301
40
1.661266
50
159.9534526
51
171.3801304
0
ARC
8
front_labelLayer
10
65.3683214
20
20.3482134
40
2.7570563
50
171.1765771
51
178.3217234
0
ARC
8
front_labelLayer
10
66.3489045
20
20.3037741
40
3.7385532
50
178.0810851
51
180.0237461
0
ARC
8
front_labelLayer
10
63.6227402
20
20.9742484
40
1.181704
50
116.9442878
51
147.6525567
0
ARC
8
front_labelLayer
10
63.7459143
20
20.7681839
40
1.4213079
50
115.8075452
51
117.6066501
0
ARC
8
front_labelLayer
10
63.808623
20
20.6219009
40
1.5803174
50
94.3226974
51
115.5454138
0
ARC
8
front_labelLayer
10
63.8464493
20
20.2932483
40
1.9109301
50
89.9579553
51
94.7108902
0
ARC
8
front_labelLayer
10
63.8620794
20
19.9000917
40
2.3041301
50
80.5585206
51
90.3538008
0
ARC
8
front_labelLayer
10
64.0060741
20
20.7341598
40
1.4577491
50
65.1094235
51
80.7638213
0
ARC
8
front_labelLayer
10
64.1743942
20
21.1069861
40
1.0487183
50
46.558454
51
64.8782011
0
ARC
8
front_labelLayer
10
64.1878661
20
21.1458238
40
1.0113974
50
19.3848849
51
45.5996789
0
ARC
8
front_labelLayer
10
63.6027499
20
20.9262774
40
1.6362645
50
6.9633213
51
19.8363549
0
ARC
8
front_labelLayer
10
62.7003271
20
20.8049417
40
2.546765
50
359.7631128
51
7.2116167
0
LINE
8
front_labelLayer
10
68.2177734
20
18.7623809
11
68.2177734
21
18.3158966
0
LINE
8
front_labelLayer
10
66.4880859
20
19.3881622
11
66.4880859
21
21.6803497
0
LINE
8
front_labelLayer
10
66.4880859
20
21.6803497
11
65.9361328
21
21.6803497
0
LINE
8
front_labelLayer
10
65.9361328
20
21.6803497
11
65.9361328
21
21.9615997
0
LINE
8
front_labelLayer
10
65.9361328
20
21.9615997
11
66.4880859
21
22.2041778
0
LINE
8
front_labelLayer
10
66.4880859
20
22.2041778
11
66.7341797
21
23.0268341
0
LINE
8
front_labelLayer
10
66.7341797
20
23.0268341
11
67.0716797
21
23.0268341
0
LINE
8
front_labelLayer
10
67.0716797
20
23.0268341
11
67.0716797
21
22.1338653
0
LINE
8
front_labelLayer
10
67.0716797
20
22.1338653
11
68.1896484
21
22.1338653
0
LINE
8
front_labelLayer
10
68.1896484
20
22.1338653
11
68.1896484
21
21.6803497
0
LINE
8
front_labelLayer
10
68.1896484
20
21.6803497
11
67.0716797
21
21.6803497
0
LINE
8
front_labelLayer
10
67.0716797
20
21.6803497
11
67.0716797
21
19.4127716
0
ARC
8
front_labelLayer
10
67.6944333
20
20.6086647
40
1.9166004
50
269.8803132
51
278.3027971
0
ARC
8
front_labelLayer
10
67.713606
20
20.4534999
40
1.7602965
50
278.4145937
51
279.009251
0
ARC
8
front_labelLayer
10
67.4975929
20
21.83362
40
3.1572178
50
278.9589785
51
280.5103195
0
ARC
8
front_labelLayer
10
67.7025387
20
20.7339014
40
2.0385656
50
280.4848914
51
282.6267735
0
ARC
8
front_labelLayer
10
67.8823284
20
19.9351409
40
1.2198218
50
282.5876473
51
285.5796174
0
ARC
8
front_labelLayer
10
67.9724602
20
19.6036694
40
0.8763246
50
285.7238148
51
286.2562754
0
ARC
8
front_labelLayer
10
67.9724092
20
18.834857
40
0.5740414
50
287.9889567
51
295.3047586
0
ARC
8
front_labelLayer
10
67.8339596
20
19.2537383
40
1.0152066
50
283.3069675
51
288.1197214
0
ARC
8
front_labelLayer
10
67.687703
20
19.8638101
40
1.6425632
50
280.0071046
51
283.3736158
0
ARC
8
front_labelLayer
10
67.590011
20
20.3939161
40
2.181584
50
279.1860596
51
280.1144988
0
ARC
8
front_labelLayer
10
67.5297741
20
20.7365826
40
2.5294766
50
275.5260304
51
279.2938957
0
ARC
8
front_labelLayer
10
67.5974624
20
20.0296035
40
1.8192651
50
270.8933822
51
275.5482951
0
ARC
8
front_labelLayer
10
67.6059572
20
19.708382
40
1.4979542
50
270.0037298
51
270.7600711
0
ARC
8
front_labelLayer
10
67.5825043
20
19.7345029
40
1.524257
50
253.78477
51
270.8852789
0
ARC
8
front_labelLayer
10
67.4019203
20
19.1186456
40
0.8824726
50
190.3817627
51
253.8772501
0
ARC
8
front_labelLayer
10
68.3223587
20
19.3675152
40
1.8343889
50
179.355094
51
192.8477427
0
ARC
8
front_labelLayer
10
68.2468114
20
19.4054207
40
1.1751548
50
179.6416003
51
189.7506163
0
ARC
8
front_labelLayer
10
67.8319638
20
19.3314264
40
0.7537729
50
189.5479093
51
205.7873549
0
ARC
8
front_labelLayer
10
67.6614777
20
19.2528105
40
0.5660742
50
206.1294715
51
221.4084052
0
ARC
8
front_labelLayer
10
67.6423608
20
19.2383047
40
0.5421447
50
221.5949219
51
262.3505224
0
ARC
8
front_labelLayer
10
67.6878251
20
19.4721079
40
0.7800438
50
261.3267161
51
270.1913099
0
LINE
8
left_outsideCutPath
10
126
20
39
11
126
21
30
0
LINE
8
left_outsideCutPath
10
126
20
30
11
123
21
30
0
LINE
8
left_outsideCutPath
10
123
20
30
11
123
21
24
0
LINE
8
left_outsideCutPath
10
123
20
24
11
126
21
24
0
LINE
8
left_outsideCutPath
10
126
20
24
11
126
21
18
0
LINE
8
left_outsideCutPath
10
126
20
18
11
123
21
18
0
LINE
8
left_outsideCutPath
10
123
20
18
11
123
21
12
0
LINE
8
left_outsideCutPath
10
123
20
12
11
126
21
12
0
LINE
8
left_outsideCutPath
10
126
20
12
11
126
21
6
0
LINE
8
left_outsideCutPath
10
126
20
6
11
126
21
3
0
LINE
8
left_outsideCutPath
10
126
20
3
11
134
21
3
0
LINE
8
left_outsideCutPath
10
134
20
3
11
134
21
6
0
LINE
8
left_outsideCutPath
10
134
20
6
11
140
21
6
0
LINE
8
left_outsideCutPath
10
140
20
6
11
140
21
3
0
LINE
8
left_outsideCutPath
10
140
20
3
11
146
21
3
0
LINE
8
left_outsideCutPath
10
146
20
3
11
146
21
6
0
LINE
8
left_outsideCutPath
10
146
20
6
11
152
21
6
0
LINE
8
left_outsideCutPath
10
152
20
6
11
152
21
3
0
LINE
8
left_outsideCutPath
10
152
20
3
11
158
21
3
0
LINE
8
left_outsideCutPath
10
158
20
3
11
158
21
6
0
LINE
8
left_outsideCutPath
10
158
20
6
11
164
21
6
0
LINE
8
left_outsideCutPath
10
164
20
6
11
164
21
3
0
LINE
8
left_outsideCutPath
10
164
20
3
11
170
21
3
0
LINE
8
left_outsideCutPath
10
170
20
3
11
170
21
6
0
LINE
8
left_outsideCutPath
10
170
20
6
11
176
21
6
0
LINE
8
left_outsideCutPath
10
176
20
6
11
176
21
3
0
LINE
8
left_outsideCutPath
10
176
20
3
11
182
21
3
0
LINE
8
left_outsideCutPath
10
182
20
3
11
182
21
6
0
LINE
8
left_outsideCutPath
10
182
20
6
11
188
21
6
0
LINE
8
left_outsideCutPath
10
188
20
6
11
188
21
3
0
LINE
8
left_outsideCutPath
10
188
20
3
11
194
21
3
0
LINE
8
left_outsideCutPath
10
194
20
3
11
194
21
6
0
LINE
8
left_outsideCutPath
10
194
20
6
11
200
21
6
0
LINE
8
left_outsideCutPath
10
200
20
6
11
200
21
3
0
LINE
8
left_outsideCutPath
10
200
20
3
11
206
21
3
0
LINE
8
left_outsideCutPath
10
206
20
3
11
206
21
6
0
LINE
8
left_outsideCutPath
10
206
20
6
11
212
21
6
0
LINE
8
left_outsideCutPath
10
212
20
6
11
212
21
3
0
LINE
8
left_outsideCutPath
10
212
20
3
11
218
21
3
0
LINE
8
left_outsideCutPath
10
218
20
3
11
220
21
3
0
LINE
8
left_outsideCutPath
10
220
20
3
11
220
21
12
0
LINE
8
left_outsideCutPath
10
220
20
12
11
223
21
12
0
LINE
8
left_outsideCutPath
10
223
20
12
11
223
21
18
0
LINE
8
left_outsideCutPath
10
223
20
18
11
220
21
18
0
LINE
8
left_outsideCutPath
10
220
20
18
11
220
21
24
0
LINE
8
left_outsideCutPath
10
220
20
24
11
223
21
24
0
LINE
8
left_outsideCutPath
10
223
20
24
11
223
21
30
0
LINE
8
left_outsideCutPath
10
223
20
30
11
220
21
30
0
LINE
8
left_outsideCutPath
10
220
20
30
11
220
21
36
0
LINE
8
left_outsideCutPath
10
220
20
36
11
220
21
39
0
LINE
8
left_outsideCutPath
10
220
20
39
11
212
21
39
0
LINE
8
left_outsideCutPath
10
212
20
39
11
212
21
36
0
LINE
8
left_outsideCutPath
10
212
20
36
11
206
21
36
0
LINE
8
left_outsideCutPath
10
206
20
36
11
206
21
39
0
LINE
8
left_outsideCutPath
10
206
20
39
11
200
21
39
0
LINE
8
left_outsideCutPath
10
200
20
39
11
200
21
36
0
LINE
8
left_outsideCutPath
10
200
20
36
11
194
21
36
0
LINE
8
left_outsideCutPath
10
194
20
36
11
194
21
39
0
LINE
8
left_outsideCutPath
10
194
20
39
11
188
21
39
0
LINE
8
left_outsideCutPath
10
188
20
39
11
188
21
36
0
LINE
8
left_outsideCutPath
10
188
20
36
11
182
21
36
0
LINE
8
left_outsideCutPath
10
182
20
36
11
182
21
39
0
LINE
8
left_outsideCutPath
10
182
20
39
11
176
21
39
0
LINE
8
left_outsideCutPath
10
176
20
39
11
176
21
36
0
LINE
8
left_outsideCutPath
10
176
20
36
11
170
21
36
0
LINE
8
left_outsideCutPath
10
170
20
36
11
170
21
39
0
LINE
8
left_outsideCutPath
10
170
20
39
11
164
21
39
0
LINE
8
left_outsideCutPath
10
164
20
39
11
164
21
36
0
LINE
8
left_outsideCutPath
10
164
20
36
11
158
21
36
0
LINE
8
left_outsideCutPath
10
158
20
36
11
158
21
39
0
LINE
8
left_outsideCutPath
10
158
20
39
11
152
21
39
0
LINE
8
left_outsideCutPath
10
152
20
39
11
152
21
36
0
LINE
8
left_outsideCutPath
10
152
20
36
11
146
21
36
0
LINE
8
left_outsideCutPath
10
146
20
36
11
146
21
39
0
LINE
8
left_outsideCutPath
10
146
20
39
11
140
21
39
0
LINE
8
left_outsideCutPath
10
140
20
39
11
140
21
36
0
LINE
8
left_outsideCutPath
10
140
20
36
11
134
21
36
0
LINE
8
left_outsideCutPath
10
134
20
36
11
134
21
39
0
LINE
8
left_outsideCutPath
10
134
20
39
11
128
21
39
0
LINE
8
left_outsideCutPath
10
128
20
39
11
126
21
39
0
LINE
8
left_labelLayer
10
168.5474609
20
23.7510528
11
168.5474609
21
18.2807403
0
LINE
8
left_labelLayer
10
168.5474609
20
18.2807403
11
167.9638672
21
18.2807403
0
LINE
8
left_labelLayer
10
167.9638672
20
18.2807403
11
167.9638672
21
23.7510528
0
LINE
8
left_labelLayer
10
167.9638672
20
23.7510528
11
168.5474609
21
23.7510528
0
LINE
8
left_labelLayer
10
172.8294922
20
20.4709747
11
172.8294922
21
20.1018341
0
LINE
8
left_labelLayer
10
172.8294922
20
20.1018341
11
170.1751953
21
20.1018341
0
LINE
8
left_labelLayer
10
172.6642578
20
18.9803497
11
172.6642578
21
18.4600372
0
LINE
8
left_labelLayer
10
170.1892578
20
20.5764434
11
172.2037109
21
20.5764434
0
ARC
8
left_labelLayer
10
171.3935054
20
20.4781556
40
2.267809
50
256.0087554
51
270.4848359
0
ARC
8
left_labelLayer
10
171.2283644
20
19.8370508
40
1.6058059
50
223.5465853
51
256.1957025
0
ARC
8
left_labelLayer
10
171.3194637
20
19.903263
40
1.717516
50
194.0877085
51
223.05383
0
ARC
8
left_labelLayer
10
172.1541906
20
20.1315316
40
2.5827643
50
181.3574285
51
194.4920127
0
ARC
8
left_labelLayer
10
172.904107
20
20.1750055
40
3.3335992
50
179.9887127
51
181.7990894
0
ARC
8
left_labelLayer
10
172.6348842
20
20.1962176
40
3.0644453
50
168.9539368
51
180.3843263
0
ARC
8
left_labelLayer
10
171.6340472
20
20.4000045
40
2.0431219
50
149.4071139
51
169.1853763
0
ARC
8
left_labelLayer
10
171.3551725
20
20.5473537
40
1.7281398
50
140.1055312
51
148.9068046
0
ARC
8
left_labelLayer
10
171.1838822
20
20.7052801
40
1.4954738
50
92.4762707
51
140.5386249
0
ARC
8
left_labelLayer
10
171.2602177
20
20.1411992
40
2.0629789
50
89.9637345
51
93.9176545
0
ARC
8
left_labelLayer
10
171.2784364
20
20.4262737
40
1.7779846
50
74.2125947
51
90.5450318
0
ARC
8
left_labelLayer
10
171.3897965
20
20.8365728
40
1.3528725
50
41.2064722
51
74.0232722
0
ARC
8
left_labelLayer
10
171.1789016
20
20.6540587
40
1.6317736
50
11.5994119
51
41.1496114
0
ARC
8
left_labelLayer
10
170.4542637
20
20.4869434
40
2.3752823
50
359.614805
51
12.03363
0
ARC
8
left_labelLayer
10
172.5170552
20
20.1486286
40
2.3423274
50
181.1447207
51
190.8007327
0
ARC
8
left_labelLayer
10
171.6907098
20
19.9856484
40
1.5000886
50
190.6005544
51
206.0275053
0
ARC
8
left_labelLayer
10
171.3251059
20
19.8128084
40
1.0957321
50
206.2950591
51
222.5558028
0
ARC
8
left_labelLayer
10
171.2927093
20
19.7958459
40
1.0604382
50
223.0645187
51
258.1401207
0
ARC
8
left_labelLayer
10
171.4216757
20
20.3268738
40
1.6067261
50
257.5311404
51
270.4319655
0
ARC
8
left_labelLayer
10
171.4231165
20
21.8024527
40
3.0822778
50
270.1983908
51
292.20905
0
ARC
8
left_labelLayer
10
171.2752102
20
22.2272592
40
3.531554
50
291.825544
51
293.1615334
0
ARC
8
left_labelLayer
10
171.2680113
20
21.6733063
40
3.5035129
50
287.9022961
51
293.4861621
0
ARC
8
left_labelLayer
10
171.5221621
20
20.889157
40
2.679206
50
281.9935709
51
287.8851466
0
ARC
8
left_labelLayer
10
171.5837421
20
20.6678651
40
2.4499896
50
275.9055378
51
281.6602956
0
ARC
8
left_labelLayer
10
171.4604529
20
21.8186718
40
3.6073764
50
271.9119353
51
275.9727214
0
ARC
8
left_labelLayer
10
171.415435
20
22.9654035
40
4.7549765
50
269.9669882
51
271.993078
0
ARC
8
left_labelLayer
10
171.2432926
20
20.5651664
40
1.1503941
50
89.442193
51
106.2089962
0
ARC
8
left_labelLayer
10
171.1740836
20
20.8175097
40
0.8887712
50
106.4656802
51
137.9176704
0
ARC
8
left_labelLayer
10
171.3725109
20
20.6432572
40
1.1528299
50
138.0994898
51
160.5866108
0
ARC
8
left_labelLayer
10
171.8825603
20
20.4556191
40
1.6962642
50
160.3353413
51
172.5315228
0
ARC
8
left_labelLayer
10
172.3845688
20
20.3751759
40
2.2045178
50
172.1544208
51
174.7617309
0
ARC
8
left_labelLayer
10
170.2150483
20
20.5877394
40
1.9886947
50
359.6745525
51
8.9224194
0
ARC
8
left_labelLayer
10
170.9256568
20
20.7035204
40
1.2687347
50
8.7342507
51
23.2771358
0
ARC
8
left_labelLayer
10
171.2630143
20
20.8451327
40
0.9028802
50
23.4821686
51
39.7072324
0
ARC
8
left_labelLayer
10
171.3458792
20
20.9071431
40
0.7995316
50
40.0822901
51
80.6243341
0
ARC
8
left_labelLayer
10
171.2605827
20
20.5161405
40
1.1993809
50
79.6468895
51
90.2909545
0
LINE
8
left_labelLayer
10
175.5611328
20
22.1338653
11
175.5611328
21
21.6803497
0
LINE
8
left_labelLayer
10
175.5611328
20
21.6803497
11
174.5802734
21
21.6803497
0
LINE
8
left_labelLayer
10
174.5802734
20
21.6803497
11
174.5802734
21
18.2807403
0
LINE
8
left_labelLayer
10
174.5802734
20
18.2807403
11
173.9966797
21
18.2807403
0
LINE
8
left_labelLayer
10
173.9966797
20
18.2807403
11
173.9966797
21
21.6803497
0
LINE
8
left_labelLayer
10
173.9966797
20
21.6803497
11
173.3076172
21
21.6803497
0
LINE
8
left_labelLayer
10
173.3076172
20
21.6803497
11
173.3076172
21
21.9440216
0
LINE
8
left_labelLayer
10
173.3076172
20
21.9440216
11
173.9966797
21
22.1549591
0
LINE
8
left_labelLayer
10
173.9966797
20
22.1549591
11
173.9966797
21
22.3694122
0
LINE
8
left_labelLayer
10
175.9548828
20
23.6666778
11
175.8037109
21
23.1990997
0
LINE
8
left_labelLayer
10
174.5802734
20
22.3834747
11
174.5802734
21
22.1338653
0
LINE
8
left_labelLayer
10
174.5802734
20
22.1338653
11
175.5611328
21
22.1338653
0
ARC
8
left_labelLayer
10
176.3617885
20
22.3966025
40
2.3652651
50
167.5776333
51
180.6586691
0
ARC
8
left_labelLayer
10
175.2495595
20
22.6559081
40
1.2233739
50
141.7433776
51
168.2321968
0
ARC
8
left_labelLayer
10
175.0684673
20
22.7504246
40
1.0233515
50
98.2551563
51
139.6203282
0
ARC
8
left_labelLayer
10
175.227469
20
22.0158962
40
1.7738579
50
89.6696863
51
99.9314259
0
ARC
8
left_labelLayer
10
175.2279141
20
21.910451
40
1.8792991
50
81.5641037
51
89.7017911
0
ARC
8
left_labelLayer
10
175.0957888
20
20.9886864
40
2.8104775
50
75.974006
51
81.6564469
0
ARC
8
left_labelLayer
10
174.8691138
20
20.0484732
40
3.7776048
50
73.2962867
51
76.0946637
0
ARC
8
left_labelLayer
10
174.9261679
20
20.5044863
40
2.8339059
50
71.9613487
51
76.5918567
0
ARC
8
left_labelLayer
10
175.1460247
20
21.4371411
40
1.8756925
50
76.5183747
51
83.0217245
0
ARC
8
left_labelLayer
10
175.2226073
20
22.0530018
40
1.2550903
50
83.0761646
51
89.7926924
0
ARC
8
left_labelLayer
10
175.2200868
20
22.5210735
40
0.7870422
50
89.4859156
51
103.4196957
0
ARC
8
left_labelLayer
10
175.1491294
20
22.7936867
40
0.5054371
50
102.7677221
51
144.3380431
0
ARC
8
left_labelLayer
10
175.2920837
20
22.7017095
40
0.6752611
50
145.0689431
51
162.1801316
0
ARC
8
left_labelLayer
10
175.782219
20
22.5368051
40
1.1923669
50
161.8438152
51
171.7846219
0
ARC
8
left_labelLayer
10
176.5816161
20
22.416741
40
2.0007223
50
171.6528174
51
178.4383562
0
ARC
8
left_labelLayer
10
177.3352942
20
22.3845951
40
2.7550209
50
178.1972278
51
180.0233004
0
LINE
8
left_labelLayer
10
178.0361328
20
18.7623809
11
178.0361328
21
18.3158966
0
LINE
8
left_labelLayer
10
176.3064453
20
19.3881622
11
176.3064453
21
21.6803497
0
LINE
8
left_labelLayer
10
176.3064453
20
21.6803497
11
175.7544922
21
21.6803497
0
LINE
8
left_labelLayer
10
175.7544922
20
21.6803497
11
175.7544922
21
21.9615997
0
LINE
8
left_labelLayer
10
175.7544922
20
21.9615997
11
176.3064453
21
22.2041778
0
LINE
8
left_labelLayer
10
176.3064453
20
22.2041778
11
176.5525391
21
23.0268341
0
LINE
8
left_labelLayer
10
176.5525391
20
23.0268341
11
176.8900391
21
23.0268341
0
LINE
8
left_labelLayer
10
176.8900391
20
23.0268341
11
176.8900391
21
22.1338653
0
LINE
8
left_labelLayer
10
176.8900391
20
22.1338653
11
178.0080078
21
22.1338653
0
LINE
8
left_labelLayer
10
178.0080078
20
22.1338653
11
178.0080078
21
21.6803497
0
LINE
8
left_labelLayer
10
178.0080078
20
21.6803497
11
176.8900391
21
21.6803497
0
LINE
8
left_labelLayer
10
176.8900391
20
21.6803497
11
176.8900391
21
19.4127716
0
ARC
8
left_labelLayer
10
177.5127927
20
20.6086647
40
1.9166004
50
269.8803132
51
278.3027971
0
ARC
8
left_labelLayer
10
177.5319654
20
20.4534999
40
1.7602965
50
278.4145937
51
279.009251
0
ARC
8
left_labelLayer
10
177.3159522
20
21.83362
40
3.1572178
50
278.9589785
51
280.5103195
0
ARC
8
left_labelLayer
10
177.5208981
20
20.7339014
40
2.0385656
50
280.4848914
51
282.6267735
0
ARC
8
left_labelLayer
10
177.7006878
20
19.9351409
40
1.2198218
50
282.5876473
51
285.5796174
0
ARC
8
left_labelLayer
10
177.7908196
20
19.6036694
40
0.8763246
50
285.7238148
51
286.2562754
0
ARC
8
left_labelLayer
10
177.7907686
20
18.834857
40
0.5740414
50
287.9889567
51
295.3047586
0
ARC
8
left_labelLayer
10
177.652319
20
19.2537383
40
1.0152066
50
283.3069675
51
288.1197214
0
ARC
8
left_labelLayer
10
177.5060624
20
19.8638101
40
1.6425632
50
280.0071046
51
283.3736158
0
ARC
8
left_labelLayer
10
177.4083703
20
20.3939161
40
2.181584
50
279.1860596
51
280.1144988
0
ARC
8
left_labelLayer
10
177.3481335
20
20.7365826
40
2.5294766
50
275.5260304
51
279.2938957
0
ARC
8
left_labelLayer
10
177.4158218
20
20.0296035
40
1.8192651
50
270.8933822
51
275.5482951
0
ARC
8
left_labelLayer
10
177.4243165
20
19.708382
40
1.4979542
50
270.0037298
51
270.7600711
0
ARC
8
left_labelLayer
10
177.4008636
20
19.7345029
40
1.524257
50
253.78477
51
270.8852789
0
ARC
8
left_labelLayer
10
177.2202796
20
19.1186456
40
0.8824726
50
190.3817627
51
253.8772501
0
ARC
8
left_labelLayer
10
178.1407181
20
19.3675152
40
1.8343889
50
179.355094
51
192.8477427
0
ARC
8
left_labelLayer
10
178.0651708
20
19.4054207
40
1.1751548
50
179.6416003
51
189.7506163
0
ARC
8
left_labelLayer
10
177.6503232
20
19.3314264
40
0.7537729
50
189.5479093
51
205.7873549
0
ARC
8
left_labelLayer
10
177.4798371
20
19.2528105
40
0.5660742
50
206.1294715
51
221.4084052
0
ARC
8
left_labelLayer
10
177.4607201
20
19.2383047
40
0.5421447
50
221.5949219
51
262.3505224
0
ARC
8
left_labelLayer
10
177.5061845
20
19.4721079
40
0.7800438
50
261.3267161
51
270.1913099
0
LINE
8
top_outsideCutPath
10
229
20
100
11
229
21
92
0
LINE
8
top_outsideCutPath
10
229
20
92
11
226
21
92
0
LINE
8
top_outsideCutPath
10
226
20
92
11
226
21
86
0
LINE
8
top_outsideCutPath
10
226
20
86
11
229
21
86
0
LINE
8
top_outsideCutPath
10
229
20
86
11
229
21
80
0
LINE
8
top_outsideCutPath
10
229
20
80
11
226
21
80
0
LINE
8
top_outsideCutPath
10
226
20
80
11
226
21
74
0
LINE
8
top_outsideCutPath
10
226
20
74
11
229
21
74
0
LINE
8
top_outsideCutPath
10
229
20
74
11
229
21
68
0
LINE
8
top_outsideCutPath
10
229
20
68
11
226
21
68
0
LINE
8
top_outsideCutPath
10
226
20
68
11
226
21
62
0
LINE
8
top_outsideCutPath
10
226
20
62
11
229
21
62
0
LINE
8
top_outsideCutPath
10
229
20
62
11
229
21
56
0
LINE
8
top_outsideCutPath
10
229
20
56
11
226
21
56
0
LINE
8
top_outsideCutPath
10
226
20
56
11
226
21
50
0
LINE
8
top_outsideCutPath
10
226
20
50
11
229
21
50
0
LINE
8
top_outsideCutPath
10
229
20
50
11
229
21
44
0
LINE
8
top_outsideCutPath
10
229
20
44
11
226
21
44
0
LINE
8
top_outsideCutPath
10
226
20
44
11
226
21
38
0
LINE
8
top_outsideCutPath
10
226
20
38
11
229
21
38
0
LINE
8
top_outsideCutPath
10
229
20
38
11
229
21
32
0
LINE
8
top_outsideCutPath
10
229
20
32
11
226
21
32
0
LINE
8
top_outsideCutPath
10
226
20
32
11
226
21
26
0
LINE
8
top_outsideCutPath
10
226
20
26
11
229
21
26
0
LINE
8
top_outsideCutPath
10
229
20
26
11
229
21
20
0
LINE
8
top_outsideCutPath
10
229
20
20
11
226
21
20
0
LINE
8
top_outsideCutPath
10
226
20
20
11
226
21
14
0
LINE
8
top_outsideCutPath
10
226
20
14
11
229
21
14
0
LINE
8
top_outsideCutPath
10
229
20
14
11
229
21
8
0
LINE
8
top_outsideCutPath
10
229
20
8
11
229
21
6
0
LINE
8
top_outsideCutPath
10
229
20
6
11
235
21
6
0
LINE
8
top_outsideCutPath
10
235
20
6
11
235
21
3
0
LINE
8
top_outsideCutPath
10
235
20
3
11
241
21
3
0
LINE
8
top_outsideCutPath
10
241
20
3
11
241
21
6
0
LINE
8
top_outsideCutPath
10
241
20
6
11
247
21
6
0
LINE
8
top_outsideCutPath
10
247
20
6
11
247
21
3
0
LINE
8
top_outsideCutPath
10
247
20
3
11
253
21
3
0
LINE
8
top_outsideCutPath
10
253
20
3
11
253
21
6
0
LINE
8
top_outsideCutPath
10
253
20
6
11
259
21
6
0
LINE
8
top_outsideCutPath
10
259
20
6
11
259
21
3
0
LINE
8
top_outsideCutPath
10
259
20
3
11
265
21
3
0
LINE
8
top_outsideCutPath
10
265
20
3
11
265
21
6
0
LINE
8
top_outsideCutPath
10
265
20
6
11
271
21
6
0
LINE
8
top_outsideCutPath
10
271
20
6
11
271
21
3
0
LINE
8
top_outsideCutPath
10
271
20
3
11
277
21
3
0
LINE
8
top_outsideCutPath
10
277
20
3
11
277
21
6
0
LINE
8
top_outsideCutPath
10
277
20
6
11
283
21
6
0
LINE
8
top_outsideCutPath
10
283
20
6
11
283
21
3
0
LINE
8
top_outsideCutPath
10
283
20
3
11
289
21
3
0
LINE
8
top_outsideCutPath
10
289
20
3
11
289
21
6
0
LINE
8
top_outsideCutPath
10
289
20
6
11
295
21
6
0
LINE
8
top_outsideCutPath
10
295
20
6
11
295
21
3
0
LINE
8
top_outsideCutPath
10
295
20
3
11
301
21
3
0
LINE
8
top_outsideCutPath
10
301
20
3
11
301
21
6
0
LINE
8
top_outsideCutPath
10
301
20
6
11
307
21
6
0
LINE
8
top_outsideCutPath
10
307
20
6
11
307
21
3
0
LINE
8
top_outsideCutPath
10
307
20
3
11
313
21
3
0
LINE
8
top_outsideCutPath
10
313
20
3
11
313
21
6
0
LINE
8
top_outsideCutPath
10
313
20
6
11
319
21
6
0
LINE
8
top_outsideCutPath
10
319
20
6
11
319
21
3
0
LINE
8
top_outsideCutPath
10
319
20
3
11
325
21
3
0
LINE
8
top_outsideCutPath
10
325
20
3
11
325
21
6
0
LINE
8
top_outsideCutPath
10
325
20
6
11
331
21
6
0
LINE
8
top_outsideCutPath
10
331
20
6
11
331
21
3
0
LINE
8
top_outsideCutPath
10
331
20
3
11
337
21
3
0
LINE
8
top_outsideCutPath
10
337
20
3
11
337
21
6
0
LINE
8
top_outsideCutPath
10
337
20
6
11
343
21
6
0
LINE
8
top_outsideCutPath
10
343
20
6
11
343
21
6
0
LINE
8
top_outsideCutPath
10
343
20
6
11
343
21
14
0
LINE
8
top_outsideCutPath
10
343
20
14
11
346
21
14
0
LINE
8
top_outsideCutPath
10
346
20
14
11
346
21
20
0
LINE
8
top_outsideCutPath
10
346
20
20
11
343
21
20
0
LINE
8
top_outsideCutPath
10
343
20
20
11
343
21
26
0
LINE
8
top_outsideCutPath
10
343
20
26
11
346
21
26
0
LINE
8
top_outsideCutPath
10
346
20
26
11
346
21
32
0
LINE
8
top_outsideCutPath
10
346
20
32
11
343
21
32
0
LINE
8
top_outsideCutPath
10
343
20
32
11
343
21
38
0
LINE
8
top_outsideCutPath
10
343
20
38
11
346
21
38
0
LINE
8
top_outsideCutPath
10
346
20
38
11
346
21
44
0
LINE
8
top_outsideCutPath
10
346
20
44
11
343
21
44
0
LINE
8
top_outsideCutPath
10
343
20
44
11
343
21
50
0
LINE
8
top_outsideCutPath
10
343
20
50
11
346
21
50
0
LINE
8
top_outsideCutPath
10
346
20
50
11
346
21
56
0
LINE
8
top_outsideCutPath
10
346
20
56
11
343
21
56
0
LINE
8
top_outsideCutPath
10
343
20
56
11
343
21
62
0
LINE
8
top_outsideCutPath
10
343
20
62
11
346
21
62
0
LINE
8
top_outsideCutPath
10
346
20
62
11
346
21
68
0
LINE
8
top_outsideCutPath
10
346
20
68
11
343
21
68
0
LINE
8
top_outsideCutPath
10
343
20
68
11
343
21
74
0
LINE
8
top_outsideCutPath
10
343
20
74
11
346
21
74
0
LINE
8
top_outsideCutPath
10
346
20
74
11
346
21
80
0
LINE
8
top_outsideCutPath
10
346
20
80
11
343
21
80
0
LINE
8
top_outsideCutPath
10
343
20
80
11
343
21
86
0
LINE
8
top_outsideCutPath
10
343
20
86
11
346
21
86
0
LINE
8
top_outsideCutPath
10
346
20
86
11
346
21
92
0
LINE
8
top_outsideCutPath
10
346
20
92
11
343
21
92
0
LINE
8
top_outsideCutPath
10
343
20
92
11
343
21
98
0
LINE
8
top_outsideCutPath
10
343
20
98
11
343
21
100
0
LINE
8
top_outsideCutPath
10
343
20
100
11
337
21
100
0
LINE
8
top_outsideCutPath
10
337
20
100
11
337
21
103
0
LINE
8
top_outsideCutPath
10
337
20
103
11
331
21
103
0
LINE
8
top_outsideCutPath
10
331
20
103
11
331
21
100
0
LINE
8
top_outsideCutPath
10
331
20
100
11
325
21
100
0
LINE
8
top_outsideCutPath
10
325
20
100
11
325
21
103
0
LINE
8
top_outsideCutPath
10
325
20
103
11
319
21
103
0
LINE
8
top_outsideCutPath
10
319
20
103
11
319
21
100
0
LINE
8
top_outsideCutPath
10
319
20
100
11
313
21
100
0
LINE
8
top_outsideCutPath
10
313
20
100
11
313
21
103
0
LINE
8
top_outsideCutPath
10
313
20
103
11
307
21
103
0
LINE
8
top_outsideCutPath
10
307
20
103
11
307
21
100
0
LINE
8
top_outsideCutPath
10
307
20
100
11
301
21
100
0
LINE
8
top_outsideCutPath
10
301
20
100
11
301
21
103
0
LINE
8
top_outsideCutPath
10
301
20
103
11
295
21
103
0
LINE
8
top_outsideCutPath
10
295
20
103
11
295
21
100
0
LINE
8
top_outsideCutPath
10
295
20
100
11
289
21
100
0
LINE
8
top_outsideCutPath
10
289
20
100
11
289
21
103
0
LINE
8
top_outsideCutPath
10
289
20
103
11
283
21
103
0
LINE
8
top_outsideCutPath
10
283
20
103
11
283
21
100
0
LINE
8
top_outsideCutPath
10
283
20
100
11
277
21
100
0
LINE
8
top_outsideCutPath
10
277
20
100
11
277
21
103
0
LINE
8
top_outsideCutPath
10
277
20
103
11
271
21
103
0
LINE
8
top_outsideCutPath
10
271
20
103
11
271
21
100
0
LINE
8
top_outsideCutPath
10
271
20
100
11
265
21
100
0
LINE
8
top_outsideCutPath
10
265
20
100
11
265
21
103
0
LINE
8
top_outsideCutPath
10
265
20
103
11
259
21
103
0
LINE
8
top_outsideCutPath
10
259
20
103
11
259
21
100
0
LINE
8
top_outsideCutPath
10
259
20
100
11
253
21
100
0
LINE
8
top_outsideCutPath
10
253
20
100
11
253
21
103
0
LINE
8
top_outsideCutPath
10
253
20
103
11
247
21
103
0
LINE
8
top_outsideCutPath
10
247
20
103
11
247
21
100
0
LINE
8
top_outsideCutPath
10
247
20
100
11
241
21
100
0
LINE
8
top_outsideCutPath
10
241
20
100
11
241
21
103
0
LINE
8
top_outsideCutPath
10
241
20
103
11
235
21
103
0
LINE
8
top_outsideCutPath
10
235
20
103
11
235
21
100
0
LINE
8
top_outsideCutPath
10
235
20
100
11
229
21
100
0
LINE
8
top_outsideCutPath
10
229
20
100
11
229
21
100
0
LINE
8
top_labelLayer
10
277.3475735
20
50.1484375
11
277.3475735
21
48.9082031
0
LINE
8
top_labelLayer
10
272.542886
20
51.8867188
11
272.542886
21
58.2539063
0
LINE
8
top_labelLayer
10
272.542886
20
58.2539063
11
271.0096829
21
58.2539063
0
LINE
8
top_labelLayer
10
271.0096829
20
58.2539063
11
271.0096829
21
59.0351563
0
LINE
8
top_labelLayer
10
271.0096829
20
59.0351563
11
272.542886
21
59.7089844
0
LINE
8
top_labelLayer
10
272.542886
20
59.7089844
11
273.2264798
21
61.9941406
0
LINE
8
top_labelLayer
10
273.2264798
20
61.9941406
11
274.1639798
21
61.9941406
0
LINE
8
top_labelLayer
10
274.1639798
20
61.9941406
11
274.1639798
21
59.5136719
0
LINE
8
top_labelLayer
10
274.1639798
20
59.5136719
11
277.2694485
21
59.5136719
0
LINE
8
top_labelLayer
10
277.2694485
20
59.5136719
11
277.2694485
21
58.2539063
0
LINE
8
top_labelLayer
10
277.2694485
20
58.2539063
11
274.1639798
21
58.2539063
0
LINE
8
top_labelLayer
10
274.1639798
20
58.2539063
11
274.1639798
21
51.9550781
0
ARC
8
top_labelLayer
10
275.8938484
20
55.2770078
40
5.3238944
50
269.8803417
51
278.3028182
0
ARC
8
top_labelLayer
10
275.943495
20
54.869655
40
4.9136514
50
278.4158959
51
279.0076561
0
ARC
8
top_labelLayer
10
275.3471449
20
58.6792037
40
8.7695902
50
278.9589695
51
280.5103918
0
ARC
8
top_labelLayer
10
275.9164809
20
55.6243378
40
5.6621249
50
280.4847522
51
282.6268451
0
ARC
8
top_labelLayer
10
276.4157705
20
53.406163
40
3.3884538
50
282.5876165
51
285.5795336
0
ARC
8
top_labelLayer
10
276.6674299
20
52.4808945
40
2.429599
50
285.7231888
51
286.2566654
0
ARC
8
top_labelLayer
10
276.6660201
20
50.3497279
40
1.5945246
50
287.9888406
51
295.3048016
0
ARC
8
top_labelLayer
10
276.2814255
20
51.5133093
40
2.8200086
50
283.3069861
51
288.1197567
0
ARC
8
top_labelLayer
10
275.8751717
20
53.2079225
40
4.5626327
50
280.0069961
51
283.3735389
0
ARC
8
top_labelLayer
10
275.6033638
20
54.6830066
40
6.0625179
50
279.1862135
51
280.1142603
0
ARC
8
top_labelLayer
10
275.4364836
20
55.6321546
40
7.0261467
50
275.5260122
51
279.2939725
0
ARC
8
top_labelLayer
10
275.6245034
20
53.6682421
40
5.0532558
50
270.8932457
51
275.5483966
0
ARC
8
top_labelLayer
10
275.6481112
20
52.7711068
40
4.1558726
50
270.0033586
51
270.7606301
0
ARC
8
top_labelLayer
10
275.5829386
20
52.8487868
40
4.2340578
50
253.784789
51
270.8852547
0
ARC
8
top_labelLayer
10
275.0813155
20
51.138062
40
2.4513133
50
190.3817699
51
253.8772374
0
ARC
8
top_labelLayer
10
277.6380868
20
51.8293671
40
5.0955236
50
179.3551054
51
192.8477577
0
ARC
8
top_labelLayer
10
277.4282791
20
51.9346632
40
3.2643631
50
179.6416773
51
189.7505556
0
ARC
8
top_labelLayer
10
276.275889
20
51.729123
40
2.093823
50
189.5479676
51
205.7873396
0
ARC
8
top_labelLayer
10
275.8023032
20
51.5107376
40
1.5724225
50
206.1294051
51
221.408398
0
ARC
8
top_labelLayer
10
275.7492047
20
51.4704474
40
1.505957
50
221.5949091
51
262.3505289
0
ARC
8
top_labelLayer
10
275.8754961
20
52.1198857
40
2.1667729
50
261.3266216
51
270.1912791
0
ARC
8
top_labelLayer
10
280.3510966
20
54.1154251
40
8.3736204
50
349.1761945
51
0.3862568
0
ARC
8
top_labelLayer
10
283.1703018
20
53.5534117
40
5.4990771
50
330.2507047
51
349.4116462
0
ARC
8
top_labelLayer
10
284.0379102
20
53.1024625
40
4.5222197
50
318.143971
51
329.7566252
0
ARC
8
top_labelLayer
10
284.1944985
20
52.9769728
40
4.3218687
50
278.8959183
51
317.9979086
0
ARC
8
top_labelLayer
10
283.7910253
20
54.9100479
40
6.2948732
50
269.7502763
51
279.8033236
0
ARC
8
top_labelLayer
10
283.7255892
20
53.8208856
40
5.2057899
50
253.5436962
51
270.418238
0
ARC
8
top_labelLayer
10
283.5522954
20
53.1505461
40
4.5138811
50
238.8115441
51
253.242846
0
ARC
8
top_labelLayer
10
283.4963705
20
53.0380827
40
4.3887236
50
207.7946962
51
238.6757996
0
ARC
8
top_labelLayer
10
284.2988576
20
53.5295671
40
5.328149
50
205.6559791
51
208.4461025
0
ARC
8
top_labelLayer
10
284.9170109
20
53.7871364
40
5.9969824
50
188.9102503
51
205.3171481
0
ARC
8
top_labelLayer
10
287.000162
20
54.1399534
40
8.1096824
50
179.7744696
51
189.0932788
0
ARC
8
top_labelLayer
10
287.3074511
20
54.2288855
40
8.4171018
50
169.244298
51
180.388077
0
ARC
8
top_labelLayer
10
284.4490727
20
54.7938822
40
5.5035418
50
150.7111564
51
169.4695354
0
ARC
8
top_labelLayer
10
283.5365975
20
55.262468
40
4.4786339
50
138.175962
51
150.2287147
0
ARC
8
top_labelLayer
10
283.3847993
20
55.3789555
40
4.2878596
50
99.175935
51
137.9832793
0
ARC
8
top_labelLayer
10
283.8025691
20
53.4128875
40
6.2961655
50
89.7326434
51
100.0759878
0
ARC
8
top_labelLayer
10
283.8860651
20
54.2619676
40
5.4472856
50
73.5222665
51
90.5692191
0
ARC
8
top_labelLayer
10
284.2055159
20
55.422616
40
4.2437569
50
41.1445735
51
73.2133783
0
ARC
8
top_labelLayer
10
283.5957123
20
54.8984982
40
5.047824
50
13.5014302
51
41.0703483
0
ARC
8
top_labelLayer
10
281.2397225
20
54.2819675
40
7.4828084
50
1.1277281
51
13.8799962
0
ARC
8
top_labelLayer
10
279.2104564
20
54.1732273
40
9.5140701
50
359.991856
51
1.5419431
0
ARC
8
top_labelLayer
10
288.7793106
20
54.1297462
40
8.2091889
50
179.7059623
51
187.9160759
0
ARC
8
top_labelLayer
10
285.7684371
20
53.6972383
40
5.1674586
50
187.7639332
51
200.097688
0
ARC
8
top_labelLayer
10
284.1097575
20
53.0894957
40
3.4009457
50
200.0845876
51
216.9131503
0
ARC
8
top_labelLayer
10
283.504065
20
52.6570034
40
2.6569704
50
217.300954
51
261.7099073
0
ARC
8
top_labelLayer
10
283.7852464
20
53.9987696
40
4.0261509
50
260.5033133
51
270.2476938
0
ARC
8
top_labelLayer
10
283.8389168
20
53.7378676
40
3.765386
50
269.4481646
51
284.7255643
0
ARC
8
top_labelLayer
10
284.137
20
52.6323715
40
2.620441
50
284.566235
51
322.6333878
0
ARC
8
top_labelLayer
10
283.4400664
20
53.1358752
40
3.4799996
50
323.0089266
51
342.6390508
0
ARC
8
top_labelLayer
10
281.4466813
20
53.7873708
40
5.5770392
50
342.3615704
51
353.7537499
0
ARC
8
top_labelLayer
10
278.5057559
20
54.1418582
40
8.539136
50
353.5363189
51
0.2014064
0
ARC
8
top_labelLayer
10
278.9563952
20
54.2131599
40
8.0885493
50
359.7075543
51
7.8972827
0
ARC
8
top_labelLayer
10
281.9186297
20
54.6378247
40
5.0960791
50
7.7440005
51
20.0690174
0
ARC
8
top_labelLayer
10
283.5693221
20
55.2435663
40
3.3377565
50
20.0257107
51
37.4350558
0
ARC
8
top_labelLayer
10
284.1170072
20
55.6321958
40
2.6667491
50
37.9577645
51
80.400615
0
ARC
8
top_labelLayer
10
283.8057766
20
54.2435122
40
4.0885816
50
79.345353
51
90.3174962
0
ARC
8
top_labelLayer
10
283.7481461
20
54.4741811
40
3.8580087
50
89.4805853
51
103.8805168
0
ARC
8
top_labelLayer
10
283.4239739
20
55.708624
40
2.5819124
50
103.4685218
51
142.3118841
0
ARC
8
top_labelLayer
10
284.0541869
20
55.2654126
40
3.3517727
50
142.9025565
51
162.3749748
0
ARC
8
top_labelLayer
10
286.0400028
20
54.6036421
40
5.4448258
50
162.0652994
51
173.1674849
0
ARC
8
top_labelLayer
10
289.1364242
20
54.2087102
40
8.5662738
50
173.0086063
51
180.2463739
0
LINE
8
top_labelLayer
10
293.1874173
20
50.1875
11
293.0702298
21
50.1875
0
LINE
8
top_labelLayer
10
293.1874173
20
48.4101563
11
293.1874173
21
44.0058594
0
LINE
8
top_labelLayer
10
293.1874173
20
44.0058594
11
291.5663235
21
44.0058594
0
LINE
8
top_labelLayer
10
291.5663235
20
44.0058594
11
291.5663235
21
59.5136719
0
LINE
8
top_labelLayer
10
291.5663235
20
59.5136719
11
292.8846829
21
59.5136719
0
LINE
8
top_labelLayer
10
292.8846829
20
59.5136719
11
293.1092923
21
58.0488281
0
LINE
8
top_labelLayer
10
293.1092923
20
58.0488281
11
293.1874173
21
58.0488281
0
LINE
8
top_labelLayer
10
293.1874173
20
54.5332031
11
293.1874173
21
54.171875
0
ARC
8
top_labelLayer
10
296.5194555
20
53.5322906
40
4.9171322
50
255.7755416
51
270.3185374
0
ARC
8
top_labelLayer
10
296.3791398
20
52.908873
40
4.2783843
50
245.9801859
51
255.5455587
0
ARC
8
top_labelLayer
10
296.1073457
20
52.2768094
40
3.5904312
50
215.5850261
51
245.8361642
0
ARC
8
top_labelLayer
10
277.8496184
20
48.2641304
40
15.3416545
50
2.9503421
51
7.202072
0
ARC
8
top_labelLayer
10
280.332012
20
48.40302
40
12.8554072
50
0.031806
51
2.9016028
0
ARC
8
top_labelLayer
10
296.7583614
20
55.5409501
40
4.3636102
50
132.3565004
51
144.9195899
0
ARC
8
top_labelLayer
10
296.0898956
20
56.2702259
40
3.3743272
50
115.4006137
51
132.3118294
0
ARC
8
top_labelLayer
10
296.3506412
20
55.6354714
40
4.0597322
50
97.7066187
51
114.8821564
0
ARC
8
top_labelLayer
10
296.5327473
20
54.4544376
40
5.2545656
50
89.8468529
51
97.9474213
0
ARC
8
top_labelLayer
10
296.5969639
20
54.7401623
40
4.9690754
50
74.1923688
51
90.5785123
0
ARC
8
top_labelLayer
10
296.9407955
20
55.9900687
40
3.6727883
50
38.0523474
51
74.0417263
0
ARC
8
top_labelLayer
10
295.9924523
20
55.2632035
40
4.8676005
50
16.3355866
51
37.9090671
0
ARC
8
top_labelLayer
10
293.5011028
20
54.4958519
40
7.4742887
50
4.5766667
51
16.6088732
0
ARC
8
top_labelLayer
10
290.4339674
20
54.1902386
40
10.5562
50
359.9003283
51
4.9018032
0
ARC
8
top_labelLayer
10
291.4854532
20
54.1157999
40
9.5048639
50
350.6562881
51
0.3380252
0
ARC
8
top_labelLayer
10
294.7990067
20
53.5522029
40
6.1437972
50
335.8306022
51
350.8254751
0
ARC
8
top_labelLayer
10
296.2565903
20
52.9230886
40
4.5564622
50
321.3161305
51
335.5436301
0
ARC
8
top_labelLayer
10
296.8138206
20
52.4690289
40
3.8376919
50
274.0640061
51
321.4081015
0
ARC
8
top_labelLayer
10
296.5542201
20
54.1134411
40
5.4982118
50
269.9225965
51
275.5481661
0
ARC
8
top_labelLayer
10
296.2790286
20
53.661148
40
4.6710026
50
89.5904412
51
100.3501858
0
ARC
8
top_labelLayer
10
295.9459497
20
55.410941
40
2.8898705
50
100.0868045
51
118.1918041
0
ARC
8
top_labelLayer
10
295.604742
20
56.0764072
40
2.1421965
50
118.5569486
51
141.0243277
0
ARC
8
top_labelLayer
10
296.1246775
20
55.7096532
40
2.7774022
50
141.8890381
51
160.5973074
0
ARC
8
top_labelLayer
10
297.9519315
20
55.0391792
40
4.7236842
50
160.289556
51
171.245311
0
ARC
8
top_labelLayer
10
300.9562922
20
54.5547776
40
7.7667989
50
171.0868428
51
178.3247594
0
ARC
8
top_labelLayer
10
303.5032069
20
54.4337124
40
10.3162694
50
178.0661888
51
179.4474273
0
ARC
8
top_labelLayer
10
303.9058937
20
54.1300209
40
10.7185581
50
179.7762696
51
185.7075172
0
ARC
8
top_labelLayer
10
299.6799083
20
53.694594
40
6.4702325
50
185.5924625
51
194.2050865
0
ARC
8
top_labelLayer
10
296.9728414
20
52.9920131
40
3.6735677
50
193.9430285
51
208.0218386
0
ARC
8
top_labelLayer
10
295.8775461
20
52.4348052
40
2.4449999
50
208.5536273
51
217.560509
0
ARC
8
top_labelLayer
10
295.788309
20
52.3976906
40
2.3517682
50
218.1690497
51
253.8047105
0
ARC
8
top_labelLayer
10
296.2245143
20
53.7425551
40
3.7651815
50
253.1382373
51
266.8483309
0
ARC
8
top_labelLayer
10
296.3468354
20
55.1850928
40
5.2124386
50
266.3775722
51
270.0510514
0
ARC
8
top_labelLayer
10
296.3883921
20
52.7038905
40
2.7314836
50
269.2257021
51
292.0430264
0
ARC
8
top_labelLayer
10
296.4252482
20
52.4842507
40
2.5145302
50
293.1429539
51
324.135392
0
ARC
8
top_labelLayer
10
295.8777746
20
52.9477804
40
3.2302402
50
323.1616244
51
325.0154265
0
ARC
8
top_labelLayer
10
295.2913299
20
53.311426
40
3.9194038
50
325.5753872
51
344.1504659
0
ARC
8
top_labelLayer
10
293.263118
20
53.9109845
40
6.0342975
50
343.9336407
51
355.1137379
0
ARC
8
top_labelLayer
10
290.6740804
20
54.1736979
40
8.6364019
50
354.8402115
51
0.1174814
0
ARC
8
top_labelLayer
10
291.1300398
20
54.2326931
40
8.1805286
50
359.7108288
51
7.8610328
0
ARC
8
top_labelLayer
10
294.1044857
20
54.6566914
40
5.1760604
50
7.7149579
51
19.885974
0
ARC
8
top_labelLayer
10
295.7403486
20
55.2475738
40
3.4367535
50
19.8991246
51
35.8980299
0
ARC
8
top_labelLayer
10
296.4700119
20
55.8001656
40
2.5217497
50
35.4481683
51
85.2266505
0
ARC
8
top_labelLayer
10
296.3175785
20
54.8442295
40
3.4878056
50
84.0379224
51
90.084786
0
LINE
8
back_outsideCutPath
10
0
20
78
11
0
21
69
0
LINE
8
back_outsideCutPath
10
0
20
69
11
3
21
69
0
LINE
8
back_outsideCutPath
10
3
20
69
11
3
21
63
0
LINE
8
back_outsideCutPath
10
3
20
63
11
0
21
63
0
LINE
8
back_outsideCutPath
10
0
20
63
11
0
21
57
0
LINE
8
back_outsideCutPath
10
0
20
57
11
3
21
57
0
LINE
8
back_outsideCutPath
10
3
20
57
11
3
21
51
0
LINE
8
back_outsideCutPath
10
3
20
51
11
0
21
51
0
LINE
8
back_outsideCutPath
10
0
20
51
11
0
21
45
0
LINE
8
back_outsideCutPath
10
0
20
45
11
0
21
42
0
LINE
8
back_outsideCutPath
10
0
20
42
11
9
21
42
0
LINE
8
back_outsideCutPath
10
9
20
42
11
9
21
45
0
LINE
8
back_outsideCutPath
10
9
20
45
11
15
21
45
0
LINE
8
back_outsideCutPath
10
15
20
45
11
15
21
42
0
LINE
8
back_outsideCutPath
10
15
20
42
11
21
21
42
0
LINE
8
back_outsideCutPath
10
21
20
42
11
21
21
45
0
LINE
8
back_outsideCutPath
10
21
20
45
11
27
21
45
0
LINE
8
back_outsideCutPath
10
27
20
45
11
27
21
42
0
LINE
8
back_outsideCutPath
10
27
20
42
11
33
21
42
0
LINE
8
back_outsideCutPath
10
33
20
42
11
33
21
45
0
LINE
8
back_outsideCutPath
10
33
20
45
11
39
21
45
0
LINE
8
back_outsideCutPath
10
39
20
45
11
39
21
42
0
LINE
8
back_outsideCutPath
10
39
20
42
11
45
21
42
0
LINE
8
back_outsideCutPath
10
45
20
42
11
45
21
45
0
LINE
8
back_outsideCutPath
10
45
20
45
11
51
21
45
0
LINE
8
back_outsideCutPath
10
51
20
45
11
51
21
42
0
LINE
8
back_outsideCutPath
10
51
20
42
11
57
21
42
0
LINE
8
back_outsideCutPath
10
57
20
42
11
57
21
45
0
LINE
8
back_outsideCutPath
10
57
20
45
11
63
21
45
0
LINE
8
back_outsideCutPath
10
63
20
45
11
63
21
42
0
LINE
8
back_outsideCutPath
10
63
20
42
11
69
21
42
0
LINE
8
back_outsideCutPath
10
69
20
42
11
69
21
45
0
LINE
8
back_outsideCutPath
10
69
20
45
11
75
21
45
0
LINE
8
back_outsideCutPath
10
75
20
45
11
75
21
42
0
LINE
8
back_outsideCutPath
10
75
20
42
11
81
21
42
0
LINE
8
back_outsideCutPath
10
81
20
42
11
81
21
45
0
LINE
8
back_outsideCutPath
10
81
20
45
11
87
21
45
0
LINE
8
back_outsideCutPath
10
87
20
45
11
87
21
42
0
LINE
8
back_outsideCutPath
10
87
20
42
11
93
21
42
0
LINE
8
back_outsideCutPath
10
93
20
42
11
93
21
45
0
LINE
8
back_outsideCutPath
10
93
20
45
11
99
21
45
0
LINE
8
back_outsideCutPath
10
99
20
45
11
99
21
42
0
LINE
8
back_outsideCutPath
10
99
20
42
11
105
21
42
0
LINE
8
back_outsideCutPath
10
105
20
42
11
105
21
45
0
LINE
8
back_outsideCutPath
10
105
20
45
11
111
21
45
0
LINE
8
back_outsideCutPath
10
111
20
45
11
111
21
42
0
LINE
8
back_outsideCutPath
10
111
20
42
11
117
21
42
0
LINE
8
back_outsideCutPath
10
117
20
42
11
120
21
42
0
LINE
8
back_outsideCutPath
10
120
20
42
11
120
21
51
0
LINE
8
back_outsideCutPath
10
120
20
51
11
117
21
51
0
LINE
8
back_outsideCutPath
10
117
20
51
11
117
21
57
0
LINE
8
back_outsideCutPath
10
117
20
57
11
120
21
57
0
LINE
8
back_outsideCutPath
10
120
20
57
11
120
21
63
0
LINE
8
back_outsideCutPath
10
120
20
63
11
117
21
63
0
LINE
8
back_outsideCutPath
10
117
20
63
11
117
21
69
0
LINE
8
back_outsideCutPath
10
117
20
69
11
120
21
69
0
LINE
8
back_outsideCutPath
10
120
20
69
11
120
21
75
0
LINE
8
back_outsideCutPath
10
120
20
75
11
120
21
78
0
LINE
8
back_outsideCutPath
10
120
20
78
11
111
21
78
0
LINE
8
back_outsideCutPath
10
111
20
78
11
111
21
75
0
LINE
8
back_outsideCutPath
10
111
20
75
11
105
21
75
0
LINE
8
back_outsideCutPath
10
105
20
75
11
105
21
78
0
LINE
8
back_outsideCutPath
10
105
20
78
11
99
21
78
0
LINE
8
back_outsideCutPath
10
99
20
78
11
99
21
75
0
LINE
8
back_outsideCutPath
10
99
20
75
11
93
21
75
0
LINE
8
back_outsideCutPath
10
93
20
75
11
93
21
78
0
LINE
8
back_outsideCutPath
10
93
20
78
11
87
21
78
0
LINE
8
back_outsideCutPath
10
87
20
78
11
87
21
75
0
LINE
8
back_outsideCutPath
10
87
20
75
11
81
21
75
0
LINE
8
back_outsideCutPath
10
81
20
75
11
81
21
78
0
LINE
8
back_outsideCutPath
10
81
20
78
11
75
21
78
0
LINE
8
back_outsideCutPath
10
75
20
78
11
75
21
75
0
LINE
8
back_outsideCutPath
10
75
20
75
11
69
21
75
0
LINE
8
back_outsideCutPath
10
69
20
75
11
69
21
78
0
LINE
8
back_outsideCutPath
10
69
20
78
11
63
21
78
0
LINE
8
back_outsideCutPath
10
63
20
78
11
63
21
75
0
LINE
8
back_outsideCutPath
10
63
20
75
11
57
21
75
0
LINE
8
back_outsideCutPath
10
57
20
75
11
57
21
78
0
LINE
8
back_outsideCutPath
10
57
20
78
11
51
21
78
0
LINE
8
back_outsideCutPath
10
51
20
78
11
51
21
75
0
LINE
8
back_outsideCutPath
10
51
20
75
11
45
21
75
0
LINE
8
back_outsideCutPath
10
45
20
75
11
45
21
78
0
LINE
8
back_outsideCutPath
10
45
20
78
11
39
21
78
0
LINE
8
back_outsideCutPath
10
39
20
78
11
39
21
75
0
LINE
8
back_outsideCutPath
10
39
20
75
11
33
21
75
0
LINE
8
back_outsideCutPath
10
33
20
75
11
33
21
78
0
LINE
8
back_outsideCutPath
10
33
20
78
11
27
21
78
0
LINE
8
back_outsideCutPath
10
27
20
78
11
27
21
75
0
LINE
8
back_outsideCutPath
10
27
20
75
11
21
21
75
0
LINE
8
back_outsideCutPath
10
21
20
75
11
21
21
78
0
LINE
8
back_outsideCutPath
10
21
20
78
11
15
21
78
0
LINE
8
back_outsideCutPath
10
15
20
78
11
15
21
75
0
LINE
8
back_outsideCutPath
10
15
20
75
11
9
21
75
0
LINE
8
back_outsideCutPath
10
9
20
75
11
9
21
78
0
LINE
8
back_outsideCutPath
10
9
20
78
11
3
21
78
0
LINE
8
back_outsideCutPath
10
3
20
78
11
0
21
78
0
LINE
8
back_labelLayer
10
53.1199219
20
57.7957428
11
53.0777344
21
57.7957428
0
LINE
8
back_labelLayer
10
53.0777344
20
57.7957428
11
52.9546875
21
57.3000397
0
LINE
8
back_labelLayer
10
52.9546875
20
57.3000397
11
52.5363281
21
57.3000397
0
LINE
8
back_labelLayer
10
52.5363281
20
57.3000397
11
52.5363281
21
62.7703522
0
LINE
8
back_labelLayer
10
52.5363281
20
62.7703522
11
53.1199219
21
62.7703522
0
LINE
8
back_labelLayer
10
53.1199219
20
62.7703522
11
53.1199219
21
61.441446
0
LINE
8
back_labelLayer
10
53.0917969
20
60.6398835
11
53.1199219
21
60.6398835
0
ARC
8
back_labelLayer
10
54.3468045
20
59.4328673
40
1.7836645
50
74.2393465
51
90.5623985
0
ARC
8
back_labelLayer
10
54.4647463
20
59.8655429
40
1.3352262
50
38.5631111
51
74.0670444
0
ARC
8
back_labelLayer
10
54.1612273
20
59.6295389
40
1.7196801
50
16.4709362
51
38.4075228
0
ARC
8
back_labelLayer
10
53.2868329
20
59.3553552
40
2.6359743
50
5.1338625
51
16.7973288
0
ARC
8
back_labelLayer
10
52.182984
20
59.2380987
40
3.7459307
50
359.877929
51
5.4093417
0
ARC
8
back_labelLayer
10
52.5072082
20
59.2099315
40
3.4217575
50
350.6562939
51
0.3380123
0
ARC
8
back_labelLayer
10
53.7000981
20
59.0070344
40
2.2117628
50
335.8305956
51
350.8254974
0
ARC
8
back_labelLayer
10
54.2248214
20
58.7805564
40
1.6403296
50
321.3161447
51
335.5436164
0
ARC
8
back_labelLayer
10
54.425427
20
58.6170929
40
1.3815689
50
274.0640105
51
321.4081143
0
ARC
8
back_labelLayer
10
54.3319697
20
59.2090932
40
1.9793679
50
269.9226312
51
275.5481678
0
ARC
8
back_labelLayer
10
54.3194546
20
58.9998596
40
1.7701597
50
255.7755117
51
270.3185726
0
ARC
8
back_labelLayer
10
54.2689362
20
58.7754206
40
1.5402009
50
245.9801336
51
255.5456148
0
ARC
8
back_labelLayer
10
54.1710967
20
58.5478947
40
1.2925559
50
215.5850276
51
245.8361478
0
ARC
8
back_labelLayer
10
40.9526793
20
61.431154
40
12.1672469
50
358.1123119
51
0.0484649
0
ARC
8
back_labelLayer
10
44.3387356
20
61.317475
40
8.7792838
50
355.7238801
51
358.1258817
0
ARC
8
back_labelLayer
10
45.8321445
20
61.2148205
40
7.2823833
50
355.4718416
51
355.6531921
0
ARC
8
back_labelLayer
10
54.2082988
20
59.8809289
40
1.3268671
50
95.1835121
51
145.1108961
0
ARC
8
back_labelLayer
10
54.3249238
20
59.2232834
40
1.9931673
50
89.8742918
51
96.8145699
0
ARC
8
back_labelLayer
10
54.2327031
20
59.0878728
40
1.6399468
50
89.5731007
51
100.7323968
0
ARC
8
back_labelLayer
10
54.1113009
20
59.701239
40
1.0147145
50
100.4468969
51
119.670084
0
ARC
8
back_labelLayer
10
53.9987255
20
59.9117112
40
0.7761379
50
120.140275
51
142.424904
0
ARC
8
back_labelLayer
10
54.1849751
20
59.7885009
40
0.9990115
50
143.3382381
51
161.2559721
0
ARC
8
back_labelLayer
10
54.963828
20
59.511982
40
1.8254503
50
160.8926246
51
171.2334161
0
ARC
8
back_labelLayer
10
56.2640222
20
59.30223
40
3.1424364
50
171.0667742
51
177.8457069
0
ARC
8
back_labelLayer
10
57.615933
20
59.2334603
40
4.4960124
50
177.61757
51
180.0425957
0
ARC
8
back_labelLayer
10
56.9785507
20
59.2150505
40
3.8586582
50
179.7762699
51
185.7075524
0
ARC
8
back_labelLayer
10
55.4572407
20
59.0582996
40
2.329306
50
185.5924798
51
194.2050216
0
ARC
8
back_labelLayer
10
54.4826802
20
58.8053702
40
1.3224905
50
193.9430804
51
208.0218238
0
ARC
8
back_labelLayer
10
54.0883763
20
58.6047777
40
0.8802094
50
208.553664
51
217.5604493
0
ARC
8
back_labelLayer
10
54.0562428
20
58.5914113
40
0.8466364
50
218.1690448
51
253.8047118
0
ARC
8
back_labelLayer
10
54.2132785
20
59.0755699
40
1.3554728
50
253.138256
51
266.8482746
0
ARC
8
back_labelLayer
10
54.2573095
20
59.5948429
40
1.8764444
50
266.3775969
51
270.0511415
0
ARC
8
back_labelLayer
10
54.271434
20
58.881718
40
1.1633855
50
269.3868553
51
285.8630722
0
ARC
8
back_labelLayer
10
54.3578661
20
58.5693421
40
0.8392832
50
286.0162688
51
326.8497328
0
ARC
8
back_labelLayer
10
53.9406968
20
58.8457014
40
1.339681
50
326.7105029
51
343.6661609
0
ARC
8
back_labelLayer
10
53.1597858
20
59.0843231
40
2.1562027
50
343.4171132
51
353.6368961
0
ARC
8
back_labelLayer
10
51.9802758
20
59.2242774
40
3.3439676
50
353.4935136
51
0.2205453
0
ARC
8
back_labelLayer
10
51.876313
20
59.2511053
40
3.447934
50
359.768083
51
6.3095049
0
ARC
8
back_labelLayer
10
53.1750788
20
59.4001452
40
2.1406626
50
6.1648684
51
16.0396097
0
ARC
8
back_labelLayer
10
54.0117268
20
59.6467031
40
1.2684732
50
15.7779791
51
32.0151392
0
ARC
8
back_labelLayer
10
54.2725226
20
59.7960436
40
0.9682405
50
32.7034928
51
35.5239747
0
ARC
8
back_labelLayer
10
54.3680426
20
59.8639299
40
0.8510545
50
35.5408406
51
79.8011217
0
ARC
8
back_labelLayer
10
54.2537557
20
59.3780704
40
1.3497325
50
78.6781622
51
90.3749958
0
LINE
8
back_labelLayer
10
59.7503906
20
57.3000397
11
59.3179688
21
57.3000397
0
LINE
8
back_labelLayer
10
59.3179688
20
57.3000397
11
59.2019531
21
57.8484772
0
LINE
8
back_labelLayer
10
59.2019531
20
57.8484772
11
59.1738281
21
57.8484772
0
LINE
8
back_labelLayer
10
58.5269531
20
59.5887116
11
59.1808594
21
59.6098053
0
LINE
8
back_labelLayer
10
59.1808594
20
59.6098053
11
59.1808594
21
59.8488678
0
LINE
8
back_labelLayer
10
57.271875
20
60.4394928
11
57.0925781
21
60.8859772
0
LINE
8
back_labelLayer
10
59.7503906
20
59.9297272
11
59.7503906
21
57.3000397
0
LINE
8
back_labelLayer
10
59.1667969
20
58.8469147
11
59.1667969
21
59.1949616
0
LINE
8
back_labelLayer
10
59.1667969
20
59.1949616
11
58.5832031
21
59.1703522
0
ARC
8
back_labelLayer
10
57.2750585
20
59.3476462
40
2.419263
50
314.7444879
51
321.7072277
0
ARC
8
back_labelLayer
10
57.8694278
20
58.7437187
40
1.5719204
50
304.8485422
51
314.8531061
0
ARC
8
back_labelLayer
10
58.1549488
20
58.3373101
40
1.0752475
50
294.3932768
51
304.7370878
0
ARC
8
back_labelLayer
10
58.0574025
20
58.5900612
40
1.3458124
50
281.2979674
51
293.7313688
0
ARC
8
back_labelLayer
10
57.9284485
20
59.2150409
40
1.9839485
50
272.9335252
51
281.4139063
0
ARC
8
back_labelLayer
10
57.8857098
20
59.8559052
40
2.6261788
50
269.9538341
51
273.1491878
0
ARC
8
back_labelLayer
10
57.8709413
20
59.0206422
40
1.7909597
50
258.6719322
51
270.4047751
0
ARC
8
back_labelLayer
10
57.746539
20
58.4255576
40
1.1830433
50
238.3272985
51
258.9183688
0
ARC
8
back_labelLayer
10
57.6608129
20
58.2691596
40
1.0049689
50
227.7689703
51
237.8049888
0
ARC
8
back_labelLayer
10
57.6339951
20
58.231722
40
0.9592384
50
192.0827627
51
227.4520647
0
ARC
8
back_labelLayer
10
58.1285318
20
58.3536316
40
1.4684218
50
179.5457232
51
192.6949867
0
ARC
8
back_labelLayer
10
57.6691113
20
58.4068
40
1.0098092
50
115.4904562
51
182.356812
0
ARC
8
back_labelLayer
10
58.1748337
20
57.4792014
40
2.0655505
50
101.3567973
51
117.0798636
0
ARC
8
back_labelLayer
10
58.5809762
20
55.5812708
40
4.0063711
50
92.4696129
51
101.7065096
0
ARC
8
back_labelLayer
10
58.6976814
20
53.8912074
40
5.7000615
50
91.7163802
51
92.9096113
0
ARC
8
back_labelLayer
10
57.5046787
20
59.8578408
40
1.6762047
50
359.6932852
51
8.0036116
0
ARC
8
back_labelLayer
10
58.1387378
20
59.9502107
40
1.0354654
50
7.8272885
51
20.6041206
0
ARC
8
back_labelLayer
10
58.4975593
20
60.0874768
40
0.6512948
50
20.4094124
51
41.4479419
0
ARC
8
back_labelLayer
10
58.5505762
20
60.1166199
40
0.5924128
50
42.7294886
51
71.038073
0
ARC
8
back_labelLayer
10
58.4257566
20
59.7772297
40
0.9539763
50
70.5717133
51
83.9927733
0
ARC
8
back_labelLayer
10
58.3661324
20
59.2928967
40
1.4419152
50
83.6506667
51
90.1753804
0
ARC
8
back_labelLayer
10
58.3765906
20
58.8348104
40
1.9000532
50
90.4484637
51
103.7665585
0
ARC
8
back_labelLayer
10
58.600033
20
57.8925481
40
2.8684283
50
103.6226735
51
112.4319557
0
ARC
8
back_labelLayer
10
58.982989
20
56.9256058
40
3.9083646
50
112.2121673
51
115.9641184
0
ARC
8
back_labelLayer
10
58.369684
20
58.5176008
40
2.6907631
50
106.3568586
51
118.3349957
0
ARC
8
back_labelLayer
10
58.4842882
20
58.1635929
40
3.062735
50
104.5162132
51
106.5489899
0
ARC
8
back_labelLayer
10
58.4002442
20
58.5137642
40
2.7026839
50
90.0714262
51
104.6521202
0
ARC
8
back_labelLayer
10
58.4108518
20
58.7516932
40
2.4647924
50
81.5680211
51
90.3249023
0
ARC
8
back_labelLayer
10
58.5533636
20
59.680125
40
1.5255066
50
68.2273189
51
81.7494502
0
ARC
8
back_labelLayer
10
58.7518563
20
60.1739888
40
0.9932484
50
47.8683
51
68.2934436
0
ARC
8
back_labelLayer
10
58.7840698
20
60.2383109
40
0.9241375
50
19.2331264
51
46.6741136
0
ARC
8
back_labelLayer
10
58.2474085
20
60.038673
40
1.4966546
50
6.3378737
51
19.6815113
0
ARC
8
back_labelLayer
10
57.4541163
20
59.9376371
40
2.296288
50
359.8026369
51
6.6583971
0
ARC
8
back_labelLayer
10
58.011411
20
59.3181246
40
1.6068001
50
269.5791692
51
282.0413493
0
ARC
8
back_labelLayer
10
58.128614
20
58.7982577
40
1.0739386
50
281.7121269
51
306.4593707
0
ARC
8
back_labelLayer
10
58.18056
20
58.7128173
40
0.9743933
50
306.9882445
51
313.8557835
0
ARC
8
back_labelLayer
10
58.1744039
20
58.7110161
40
0.9773763
50
314.1891739
51
347.4269988
0
ARC
8
back_labelLayer
10
57.6848213
20
58.833705
40
1.4819842
50
346.9177134
51
0.2825203
0
ARC
8
back_labelLayer
10
57.2758136
20
58.8469751
40
1.8909833
50
359.8193351
51
359.9981698
0
ARC
8
back_labelLayer
10
58.7220216
20
54.8874989
40
4.2851024
50
91.8564567
51
96.4478064
0
ARC
8
back_labelLayer
10
58.5287847
20
56.5596713
40
2.6018104
50
96.3545915
51
102.9952652
0
ARC
8
back_labelLayer
10
58.266464
20
57.6742088
40
1.456838
50
102.7995758
51
113.2432796
0
ARC
8
back_labelLayer
10
58.0502087
20
58.1914093
40
0.8962889
50
113.5886398
51
121.6806167
0
ARC
8
back_labelLayer
10
57.8999729
20
58.4202106
40
0.6227277
50
120.973409
51
172.4179856
0
ARC
8
back_labelLayer
10
58.1936201
20
58.3615553
40
0.921751
50
171.2121718
51
180.2059
0
ARC
8
back_labelLayer
10
58.1058616
20
58.351351
40
0.8340151
50
179.5265346
51
192.7787886
0
ARC
8
back_labelLayer
10
57.8237341
20
58.2829611
40
0.5437654
50
192.3264455
51
222.0579815
0
ARC
8
back_labelLayer
10
57.8027737
20
58.2704384
40
0.519836
50
222.5807869
51
229.2544914
0
ARC
8
back_labelLayer
10
57.8736627
20
58.361712
40
0.6352827
50
229.7836989
51
254.2724521
0
ARC
8
back_labelLayer
10
57.9681121
20
58.6764547
40
0.96386
50
253.9396722
51
266.4533958
0
ARC
8
back_labelLayer
10
57.9982573
20
59.0238942
40
1.3125271
50
266.0782063
51
270.0590202
0
LINE
8
back_labelLayer
10
63.5226563
20
61.0230866
11
63.3433594
21
60.5273835
0
LINE
8
back_labelLayer
10
63.4664063
20
57.9469147
11
63.4664063
21
57.4301178
0
ARC
8
back_labelLayer
10
62.4739639
20
59.4107689
40
2.1811211
50
256.4243558
51
270.488982
0
ARC
8
back_labelLayer
10
62.2996721
20
58.7305244
40
1.4790029
50
221.7976421
51
256.8020385
0
ARC
8
back_labelLayer
10
62.4684557
20
58.8552313
40
1.688062
50
196.0166824
51
221.1349092
0
ARC
8
back_labelLayer
10
63.3167281
20
59.114508
40
2.5749892
50
183.5913533
51
196.3539844
0
ARC
8
back_labelLayer
10
64.2669161
20
59.1982242
40
3.5286369
50
179.9388068
51
183.981575
0
ARC
8
back_labelLayer
10
63.9582649
20
59.2227234
40
3.2200503
50
169.8978503
51
180.368871
0
ARC
8
back_labelLayer
10
62.8372855
20
59.430087
40
2.0800913
50
153.087499
51
170.1051216
0
ARC
8
back_labelLayer
10
62.4119666
20
59.6333157
40
1.6088875
50
138.6549909
51
152.6853306
0
ARC
8
back_labelLayer
10
62.3325843
20
59.6911654
40
1.5111036
50
101.491295
51
138.3134017
0
ARC
8
back_labelLayer
10
62.5148248
20
58.9326986
40
2.2908375
50
89.589188
51
102.1787694
0
ARC
8
back_labelLayer
10
62.5288386
20
58.589885
40
2.6335933
50
77.7702473
51
89.9475376
0
ARC
8
back_labelLayer
10
62.4790092
20
58.3149701
40
2.9128404
50
74.6795968
51
77.9578473
0
ARC
8
back_labelLayer
10
62.7482489
20
59.2903656
40
1.9009707
50
70.0945062
51
74.7385571
0
ARC
8
back_labelLayer
10
63.0043817
20
59.9922882
40
1.1537803
50
63.5033008
51
70.1862238
0
ARC
8
back_labelLayer
10
63.1370937
20
60.2688616
40
0.8470618
50
62.9237155
51
63.190781
0
ARC
8
back_labelLayer
10
62.3846659
20
58.1146844
40
2.5961915
50
68.3294478
51
74.8831412
0
ARC
8
back_labelLayer
10
62.2477056
20
57.6290584
40
3.1007356
50
74.7801223
51
77.4497112
0
ARC
8
back_labelLayer
10
62.3915035
20
58.3040222
40
2.4106609
50
77.2998472
51
81.7345237
0
ARC
8
back_labelLayer
10
62.4963806
20
59.0348034
40
1.672394
50
81.6910369
51
87.5078369
0
ARC
8
back_labelLayer
10
62.5166194
20
59.4129592
40
1.2937212
50
87.6750846
51
89.9748392
0
ARC
8
back_labelLayer
10
62.4882574
20
59.4125071
40
1.2944966
50
88.719418
51
112.5667823
0
ARC
8
back_labelLayer
10
62.3962738
20
59.7166263
40
0.978879
50
114.4265606
51
161.663301
0
ARC
8
back_labelLayer
10
63.3100341
20
59.3589706
40
1.9594519
50
160.1418448
51
175.1367963
0
ARC
8
back_labelLayer
10
64.5677043
20
59.217743
40
3.2247475
50
174.5309545
51
180.154913
0
ARC
8
back_labelLayer
10
64.1692552
20
59.1944293
40
2.8263241
50
179.704131
51
188.0743645
0
ARC
8
back_labelLayer
10
63.1512456
20
59.045483
40
1.7974913
50
187.9315015
51
200.3885321
0
ARC
8
back_labelLayer
10
62.6008016
20
58.8415714
40
1.2104921
50
200.4183143
51
216.6392538
0
ARC
8
back_labelLayer
10
62.3700418
20
58.6766073
40
0.9268973
50
216.9695274
51
261.3103178
0
ARC
8
back_labelLayer
10
62.4718812
20
59.1514003
40
1.411923
50
260.1359623
51
270.2692264
0
ARC
8
back_labelLayer
10
62.4671805
20
60.1824622
40
2.4429956
50
270.2658457
51
286.2891336
0
ARC
8
back_labelLayer
10
62.3186554
20
60.7363478
40
3.0163336
50
286.0461205
51
292.3653947
0
ARC
8
back_labelLayer
10
62.7141852
20
58.9099148
40
1.6600107
50
282.034397
51
296.9454678
0
ARC
8
back_labelLayer
10
62.5434594
20
59.6793067
40
2.4480984
50
272.5980818
51
282.1878441
0
ARC
8
back_labelLayer
10
62.4945047
20
60.4302176
40
3.2004909
50
269.9655106
51
272.8642159
0
LINE
8
back_labelLayer
10
64.9289063
20
59.2723053
11
64.9570313
21
59.2723053
0
LINE
8
back_labelLayer
10
65.4175781
20
59.8348053
11
66.6621094
21
61.1531647
0
LINE
8
back_labelLayer
10
66.6621094
20
61.1531647
11
67.3546875
21
61.1531647
0
LINE
8
back_labelLayer
10
67.3546875
20
61.1531647
11
65.79375
21
59.5113678
0
LINE
8
back_labelLayer
10
65.79375
20
59.5113678
11
67.4636719
21
57.3000397
0
LINE
8
back_labelLayer
10
67.4636719
20
57.3000397
11
66.7570313
21
57.3000397
0
LINE
8
back_labelLayer
10
66.7570313
20
57.3000397
11
65.3964844
21
59.1211335
0
LINE
8
back_labelLayer
10
65.3964844
20
59.1211335
11
64.9570313
21
58.741446
0
LINE
8
back_labelLayer
10
64.9570313
20
58.741446
11
64.9570313
21
57.3000397
0
LINE
8
back_labelLayer
10
64.9570313
20
57.3000397
11
64.3804688
21
57.3000397
0
LINE
8
back_labelLayer
10
64.3804688
20
57.3000397
11
64.3804688
21
62.7703522
0
LINE
8
back_labelLayer
10
64.3804688
20
62.7703522
11
64.9570313
21
62.7703522
0
LINE
8
back_labelLayer
10
64.9570313
20
62.7703522
11
64.9570313
21
59.8699616
0
ARC
8
back_labelLayer
10
67.7766533
20
57.2764631
40
3.4545122
50
142.3232496
51
144.7076005
0
ARC
8
back_labelLayer
10
69.6161309
20
55.857657
40
5.7775895
50
140.4330137
51
142.3366859
0
ARC
8
back_labelLayer
10
72.0147787
20
53.88315
40
8.8843832
50
139.2799659
51
140.4703
0
ARC
8
back_labelLayer
10
74.7855323
20
51.5004879
40
12.5387165
50
138.34171
51
139.2877517
0
ARC
8
back_labelLayer
10
61.0685245
20
59.8772315
40
3.8885135
50
358.2738257
51
359.8928808
0
ARC
8
back_labelLayer
10
58.0427607
20
59.9615536
40
6.9154477
50
357.5040749
51
358.3306689
0
ARC
8
back_labelLayer
10
53.5119647
20
60.1616811
40
11.450661
50
356.6325838
51
357.4909201
0
ARC
8
back_labelLayer
10
45.9893666
20
60.6004099
40
18.9860414
50
356.0329226
51
356.6443415
0
ARC
8
back_labelLayer
10
40.5099848
20
60.9712362
40
24.4779509
50
356.0200962
51
356.0543252
0
LINE
8
right_outsideCutPath
10
126
20
78
11
126
21
69
0
LINE
8
right_outsideCutPath
10
126
20
69
11
123
21
69
0
LINE
8
right_outsideCutPath
10
123
20
69
11
123
21
63
0
LINE
8
right_outsideCutPath
10
123
20
63
11
126
21
63
0
LINE
8
right_outsideCutPath
10
126
20
63
11
126
21
57
0
LINE
8
right_outsideCutPath
10
126
20
57
11
123
21
57
0
LINE
8
right_outsideCutPath
10
123
20
57
11
123
21
51
0
LINE
8
right_outsideCutPath
10
123
20
51
11
126
21
51
0
LINE
8
right_outsideCutPath
10
126
20
51
11
126
21
45
0
LINE
8
right_outsideCutPath
10
126
20
45
11
126
21
42
0
LINE
8
right_outsideCutPath
10
126
20
42
11
134
21
42
0
LINE
8
right_outsideCutPath
10
134
20
42
11
134
21
45
0
LINE
8
right_outsideCutPath
10
134
20
45
11
140
21
45
0
LINE
8
right_outsideCutPath
10
140
20
45
11
140
21
42
0
LINE
8
right_outsideCutPath
10
140
20
42
11
146
21
42
0
LINE
8
right_outsideCutPath
10
146
20
42
11
146
21
45
0
LINE
8
right_outsideCutPath
10
146
20
45
11
152
21
45
0
LINE
8
right_outsideCutPath
10
152
20
45
11
152
21
42
0
LINE
8
right_outsideCutPath
10
152
20
42
11
158
21
42
0
LINE
8
right_outsideCutPath
10
158
20
42
11
158
21
45
0
LINE
8
right_outsideCutPath
10
158
20
45
11
164
21
45
0
LINE
8
right_outsideCutPath
10
164
20
45
11
164
21
42
0
LINE
8
right_outsideCutPath
10
164
20
42
11
170
21
42
0
LINE
8
right_outsideCutPath
10
170
20
42
11
170
21
45
0
LINE
8
right_outsideCutPath
10
170
20
45
11
176
21
45
0
LINE
8
right_outsideCutPath
10
176
20
45
11
176
21
42
0
LINE
8
right_outsideCutPath
10
176
20
42
11
182
21
42
0
LINE
8
right_outsideCutPath
10
182
20
42
11
182
21
45
0
LINE
8
right_outsideCutPath
10
182
20
45
11
188
21
45
0
LINE
8
right_outsideCutPath
10
188
20
45
11
188
21
42
0
LINE
8
right_outsideCutPath
10
188
20
42
11
194
21
42
0
LINE
8
right_outsideCutPath
10
194
20
42
11
194
21
45
0
LINE
8
right_outsideCutPath
10
194
20
45
11
200
21
45
0
LINE
8
right_outsideCutPath
10
200
20
45
11
200
21
42
0
LINE
8
right_outsideCutPath
10
200
20
42
11
206
21
42
0
LINE
8
right_outsideCutPath
10
206
20
42
11
206
21
45
0
LINE
8
right_outsideCutPath
10
206
20
45
11
212
21
45
0
LINE
8
right_outsideCutPath
10
212
20
45
11
212
21
42
0
LINE
8
right_outsideCutPath
10
212
20
42
11
218
21
42
0
LINE
8
right_outsideCutPath
10
218
20
42
11
220
21
42
0
LINE
8
right_outsideCutPath
10
220
20
42
11
220
21
51
0
LINE
8
right_outsideCutPath
10
220
20
51
11
223
21
51
0
LINE
8
right_outsideCutPath
10
223
20
51
11
223
21
57
0
LINE
8
right_outsideCutPath
10
223
20
57
11
220
21
57
0
LINE
8
right_outsideCutPath
10
220
20
57
11
220
21
63
0
LINE
8
right_outsideCutPath
10
220
20
63
11
223
21
63
0
LINE
8
right_outsideCutPath
10
223
20
63
11
223
21
69
0
LINE
8
right_outsideCutPath
10
223
20
69
11
220
21
69
0
LINE
8
right_outsideCutPath
10
220
20
69
11
220
21
75
0
LINE
8
right_outsideCutPath
10
220
20
75
11
220
21
78
0
LINE
8
right_outsideCutPath
10
220
20
78
11
212
21
78
0
LINE
8
right_outsideCutPath
10
212
20
78
11
212
21
75
0
LINE
8
right_outsideCutPath
10
212
20
75
11
206
21
75
0
LINE
8
right_outsideCutPath
10
206
20
75
11
206
21
78
0
LINE
8
right_outsideCutPath
10
206
20
78
11
200
21
78
0
LINE
8
right_outsideCutPath
10
200
20
78
11
200
21
75
0
LINE
8
right_outsideCutPath
10
200
20
75
11
194
21
75
0
LINE
8
right_outsideCutPath
10
194
20
75
11
194
21
78
0
LINE
8
right_outsideCutPath
10
194
20
78
11
188
21
78
0
LINE
8
right_outsideCutPath
10
188
20
78
11
188
21
75
0
LINE
8
right_outsideCutPath
10
188
20
75
11
182
21
75
0
LINE
8
right_outsideCutPath
10
182
20
75
11
182
21
78
0
LINE
8
right_outsideCutPath
10
182
20
78
11
176
21
78
0
LINE
8
right_outsideCutPath
10
176
20
78
11
176
21
75
0
LINE
8
right_outsideCutPath
10
176
20
75
11
170
21
75
0
LINE
8
right_outsideCutPath
10
170
20
75
11
170
21
78
0
LINE
8
right_outsideCutPath
10
170
20
78
11
164
21
78
0
LINE
8
right_outsideCutPath
10
164
20
78
11
164
21
75
0
LINE
8
right_outsideCutPath
10
164
20
75
11
158
21
75
0
LINE
8
right_outsideCutPath
10
158
20
75
11
158
21
78
0
LINE
8
right_outsideCutPath
10
158
20
78
11
152
21
78
0
LINE
8
right_outsideCutPath
10
152
20
78
11
152
21
75
0
LINE
8
right_outsideCutPath
10
152
20
75
11
146
21
75
0
LINE
8
right_outsideCutPath
10
146
20
75
11
146
21
78
0
LINE
8
right_outsideCutPath
10
146
20
78
11
140
21
78
0
LINE
8
right_outsideCutPath
10
140
20
78
11
140
21
75
0
LINE
8
right_outsideCutPath
10
140
20
75
11
134
21
75
0
LINE
8
right_outsideCutPath
10
134
20
75
11
134
21
78
0
LINE
8
right_outsideCutPath
10
134
20
78
11
128
21
78
0
LINE
8
right_outsideCutPath
10
128
20
78
11
126
21
78
0
LINE
8
right_labelLayer
10
167.7705078
20
62.0109588
11
167.6896484
21
61.4695525
0
LINE
8
right_labelLayer
10
166.1357422
20
60.1968963
11
166.1357422
21
58.1297088
0
LINE
8
right_labelLayer
10
166.1357422
20
58.1297088
11
165.5521484
21
58.1297088
0
LINE
8
right_labelLayer
10
165.5521484
20
58.1297088
11
165.5521484
21
61.9828338
0
LINE
8
right_labelLayer
10
165.5521484
20
61.9828338
11
166.0337891
21
61.9828338
0
LINE
8
right_labelLayer
10
166.0337891
20
61.9828338
11
166.1005859
21
61.2691619
0
LINE
8
right_labelLayer
10
166.1005859
20
61.2691619
11
166.1287109
21
61.2691619
0
ARC
8
right_labelLayer
10
167.3159489
20
59.3738994
40
2.6792535
50
84.9923694
51
90.1280534
0
ARC
8
right_labelLayer
10
167.3802961
20
60.0948632
40
1.9554252
50
78.4891569
51
85.0266452
0
ARC
8
right_labelLayer
10
167.1305579
20
58.958996
40
2.5720568
50
77.445335
51
81.6359849
0
ARC
8
right_labelLayer
10
167.2426191
20
59.7314039
40
1.7915641
50
81.5884458
51
87.1916113
0
ARC
8
right_labelLayer
10
167.2669651
20
60.1536905
40
1.3685967
50
87.3434322
51
89.9661612
0
ARC
8
right_labelLayer
10
167.2613056
20
60.5111126
40
1.0111949
50
89.6335219
51
137.08808
0
ARC
8
right_labelLayer
10
167.5094536
20
60.2320593
40
1.3833922
50
135.6208629
51
138.8377363
0
ARC
8
right_labelLayer
10
167.4731066
20
60.2675384
40
1.3326792
50
138.9575576
51
174.542238
0
ARC
8
right_labelLayer
10
167.9071306
20
60.1996273
40
1.7713904
50
173.6908091
51
180.088336
0
ARC
8
right_labelLayer
10
167.8457584
20
60.301787
40
1.9708035
50
139.4139096
51
150.6033337
0
ARC
8
right_labelLayer
10
167.4924013
20
60.6045768
40
1.5054616
50
124.2321445
51
139.4160732
0
ARC
8
right_labelLayer
10
167.3034569
20
60.8897866
40
1.1633778
50
89.6796785
51
124.4405395
0
LINE
8
right_labelLayer
10
169.0748047
20
61.9828338
11
169.0748047
21
58.1297088
0
LINE
8
right_labelLayer
10
169.0748047
20
58.1297088
11
168.4912109
21
58.1297088
0
LINE
8
right_labelLayer
10
168.4912109
20
58.1297088
11
168.4912109
21
61.9828338
0
LINE
8
right_labelLayer
10
168.4912109
20
61.9828338
11
169.0748047
21
61.9828338
0
ARC
8
right_labelLayer
10
169.0886691
20
63.0309765
40
0.6466893
50
170.8452521
51
180.3545808
0
ARC
8
right_labelLayer
10
168.8465814
20
63.0714533
40
0.4012478
50
155.9680056
51
171.0515598
0
ARC
8
right_labelLayer
10
168.729319
20
63.1234748
40
0.2729644
50
133.7880408
51
155.9170826
0
ARC
8
right_labelLayer
10
168.7726097
20
63.0756146
40
0.3374769
50
92.6445721
51
133.4710372
0
ARC
8
right_labelLayer
10
168.7862814
20
62.9683145
40
0.4453787
50
89.9688665
51
93.7646735
0
ARC
8
right_labelLayer
10
168.7918521
20
63.0698889
40
0.3438456
50
46.370802
51
90.8879602
0
ARC
8
right_labelLayer
10
168.8260706
20
63.1052156
40
0.2946652
50
17.7253203
51
46.4472188
0
ARC
8
right_labelLayer
10
168.6664941
20
63.0502633
40
0.4634118
50
4.9428468
51
18.190192
0
ARC
8
right_labelLayer
10
168.4635031
20
63.028319
40
0.6675529
50
359.8845955
51
5.3181472
0
ARC
8
right_labelLayer
10
168.5272552
20
63.022874
40
0.6038134
50
349.8344521
51
0.3890841
0
ARC
8
right_labelLayer
10
168.7470803
20
62.9818652
40
0.3802046
50
332.6321466
51
350.0706788
0
ARC
8
right_labelLayer
10
168.8326363
20
62.9396176
40
0.284809
50
313.6153998
51
332.2677724
0
ARC
8
right_labelLayer
10
168.7914025
20
62.9771625
40
0.3404576
50
269.1788646
51
314.2807796
0
ARC
8
right_labelLayer
10
168.7826554
20
63.0074263
40
0.3707065
50
250.4998995
51
270.5978504
0
ARC
8
right_labelLayer
10
168.7714386
20
62.9654809
40
0.3274408
50
225.1301903
51
249.8999876
0
ARC
8
right_labelLayer
10
168.7538724
20
62.946075
40
0.3012973
50
197.7933555
51
224.8941211
0
ARC
8
right_labelLayer
10
168.9182722
20
63.002413
40
0.4750614
50
184.992591
51
198.2040208
0
ARC
8
right_labelLayer
10
169.1309937
20
63.025536
40
0.6890029
50
179.8803856
51
185.3686964
0
LINE
8
right_labelLayer
10
172.1333984
20
61.9828338
11
173.4658203
21
61.9828338
0
LINE
8
right_labelLayer
10
173.4658203
20
61.9828338
11
173.4658203
21
61.6136931
0
LINE
8
right_labelLayer
10
173.4658203
20
61.6136931
11
172.7521484
21
61.5293181
0
LINE
8
right_labelLayer
10
171.4373047
20
58.7414275
11
172.1193359
21
58.7414275
0
LINE
8
right_labelLayer
10
171.9330078
20
58.2175994
11
171.2333984
21
58.2175994
0
ARC
8
right_labelLayer
10
172.0084509
20
60.9407658
40
0.9484092
50
29.4583348
51
38.3576236
0
ARC
8
right_labelLayer
10
171.6209255
20
60.7195382
40
1.3946321
50
23.1844947
51
29.542329
0
ARC
8
right_labelLayer
10
171.251355
20
60.5556357
40
1.7988914
50
21.2505492
51
23.3491213
0
ARC
8
right_labelLayer
10
171.8796601
20
60.8055137
40
1.1227526
50
6.8505065
51
20.9872221
0
ARC
8
right_labelLayer
10
171.5634432
20
60.7626392
40
1.441834
50
359.8711322
51
7.043248
0
ARC
8
right_labelLayer
10
171.6674813
20
60.745486
40
1.3378645
50
342.564993
51
0.5957363
0
ARC
8
right_labelLayer
10
171.9142267
20
60.6773509
40
1.0820772
50
310.6097645
51
342.0923589
0
ARC
8
right_labelLayer
10
171.7758629
20
60.8382932
40
1.2943198
50
284.9315682
51
310.6222631
0
ARC
8
right_labelLayer
10
171.602717
20
61.4450161
40
1.9252013
50
272.5334828
51
285.2579928
0
ARC
8
right_labelLayer
10
171.5581988
20
62.0530616
40
2.5346814
50
269.969192
51
272.9312629
0
ARC
8
right_labelLayer
10
171.5526756
20
61.3939563
40
1.8755803
50
263.4836352
51
270.127091
0
ARC
8
right_labelLayer
10
171.5221057
20
61.1036542
40
1.5836866
50
259.4961998
51
263.390544
0
ARC
8
right_labelLayer
10
171.7112107
20
58.6244596
40
1.0384957
50
117.3935849
51
128.4094616
0
ARC
8
right_labelLayer
10
171.4438552
20
58.9561357
40
0.6125052
50
128.0881797
51
147.1401051
0
ARC
8
right_labelLayer
10
171.2998263
20
59.0527891
40
0.4390887
50
147.5368758
51
180.2592238
0
ARC
8
right_labelLayer
10
171.1631851
20
59.0470639
40
0.302466
50
179.2917852
51
198.3581932
0
ARC
8
right_labelLayer
10
171.1065577
20
59.0321817
40
0.2440616
50
199.229277
51
239.5690442
0
ARC
8
right_labelLayer
10
171.1534676
20
59.0969925
40
0.3237937
50
238.2203851
51
239.8465576
0
ARC
8
right_labelLayer
10
171.1909722
20
59.1741203
40
0.4093728
50
240.730168
51
254.5027162
0
ARC
8
right_labelLayer
10
171.3027025
20
59.55914
40
0.8102621
50
254.1637391
51
262.2123925
0
ARC
8
right_labelLayer
10
171.391212
20
60.1773608
40
1.4347797
50
262.055713
51
267.208231
0
ARC
8
right_labelLayer
10
171.4339637
20
60.9614645
40
2.2200397
50
267.091831
51
270.0862263
0
ARC
8
right_labelLayer
10
172.1320918
20
56.3525635
40
2.388898
50
81.5744025
51
90.3059411
0
ARC
8
right_labelLayer
10
172.2631306
20
57.2071645
40
1.5243269
50
68.3671141
51
81.7399421
0
ARC
8
right_labelLayer
10
172.4342774
20
57.6445489
40
1.0546572
50
52.1879544
51
68.250134
0
ARC
8
right_labelLayer
10
172.5540313
20
57.8059085
40
0.8537719
50
8.6201232
51
51.8982765
0
ARC
8
right_labelLayer
10
172.1343108
20
57.7170988
40
1.2823037
50
359.743106
51
9.7326711
0
ARC
8
right_labelLayer
10
172.1531131
20
57.6954671
40
1.2635883
50
340.5268498
51
0.7201823
0
ARC
8
right_labelLayer
10
172.3387606
20
57.6492433
40
1.073307
50
302.9903976
51
339.549439
0
ARC
8
right_labelLayer
10
172.1433271
20
57.897725
40
1.3884322
50
303.1871162
51
304.1717038
0
ARC
8
right_labelLayer
10
171.9622453
20
58.2113649
40
1.7501491
50
286.2542275
51
302.527975
0
ARC
8
right_labelLayer
10
171.6317181
20
59.3015912
40
2.8893384
50
276.4939536
51
286.4953942
0
ARC
8
right_labelLayer
10
171.4254814
20
61.025605
40
4.6256263
50
269.7545303
51
276.6169566
0
ARC
8
right_labelLayer
10
171.3902605
20
59.6696865
40
3.2697015
50
262.5634534
51
270.2699205
0
ARC
8
right_labelLayer
10
171.2301162
20
58.4827149
40
2.0719931
50
251.2101927
51
262.7064126
0
ARC
8
right_labelLayer
10
170.999295
20
57.8052217
40
1.3562588
50
235.9668491
51
251.2229161
0
ARC
8
right_labelLayer
10
170.7546436
20
57.4561981
40
0.9301228
50
208.9036403
51
236.4231348
0
ARC
8
right_labelLayer
10
170.7771047
20
57.4467832
40
0.9454283
50
182.2080286
51
207.7461442
0
ARC
8
right_labelLayer
10
171.0629403
20
57.4753388
40
1.2322764
50
179.9784406
51
183.0227455
0
ARC
8
right_labelLayer
10
170.7228695
20
57.4914581
40
0.8923427
50
138.3916024
51
181.0052678
0
ARC
8
right_labelLayer
10
170.817103
20
57.4067704
40
1.0190373
50
113.8121572
51
138.3496242
0
ARC
8
right_labelLayer
10
170.9958488
20
57.0207822
40
1.444355
50
102.2870379
51
114.1172603
0
ARC
8
right_labelLayer
10
170.9396828
20
58.983196
40
0.6056927
50
216.5861348
51
245.4969283
0
ARC
8
right_labelLayer
10
171.0265886
20
59.0569022
40
0.7194437
50
215.465249
51
217.1742586
0
ARC
8
right_labelLayer
10
170.8819671
20
58.9524427
40
0.5410472
50
182.1767304
51
215.3415447
0
ARC
8
right_labelLayer
10
171.0107223
20
58.9662406
40
0.6702926
50
179.9840223
51
182.9373036
0
ARC
8
right_labelLayer
10
171.0077798
20
58.9720688
40
0.667374
50
161.7226243
51
180.4843294
0
ARC
8
right_labelLayer
10
170.9344001
20
58.9920922
40
0.5914301
50
144.4963417
51
161.3351182
0
ARC
8
right_labelLayer
10
171.1300158
20
58.8463006
40
0.8353613
50
132.7260658
51
144.1478403
0
ARC
8
right_labelLayer
10
171.4435068
20
58.5115238
40
1.2939958
50
125.2213544
51
132.8654675
0
ARC
8
right_labelLayer
10
171.7586337
20
58.0739324
40
1.8332296
50
121.2352113
51
125.3795488
0
ARC
8
right_labelLayer
10
171.1999417
20
60.5864634
40
1.0230861
50
215.1640594
51
247.4747924
0
ARC
8
right_labelLayer
10
171.3909121
20
60.7405824
40
1.2680668
50
212.47127
51
215.8874515
0
ARC
8
right_labelLayer
10
171.340699
20
60.7046613
40
1.2064236
50
183.0161012
51
212.3123108
0
ARC
8
right_labelLayer
10
171.6054662
20
60.7341718
40
1.4724587
50
179.9760653
51
183.6207409
0
ARC
8
right_labelLayer
10
171.8190431
20
60.7490287
40
1.6860954
50
166.8195583
51
180.4839629
0
ARC
8
right_labelLayer
10
171.2597024
20
60.8902504
40
1.1093331
50
132.3287715
51
167.3340616
0
ARC
8
right_labelLayer
10
171.3345333
20
60.7826877
40
1.2393617
50
106.2188579
51
131.5377934
0
ARC
8
right_labelLayer
10
171.5238754
20
60.1696189
40
1.8809458
50
93.6329488
51
106.5408984
0
ARC
8
right_labelLayer
10
171.5856915
20
59.4755566
40
2.5775911
50
89.9380915
51
94.0266836
0
ARC
8
right_labelLayer
10
171.595699
20
59.8162205
40
2.2369374
50
82.5852242
51
90.1849919
0
ARC
8
right_labelLayer
10
171.6640429
20
60.3450293
40
1.7037307
50
74.0089645
51
82.5693815
0
ARC
8
right_labelLayer
10
170.9792308
20
57.4748624
40
0.5861209
50
179.2207448
51
200.9356181
0
ARC
8
right_labelLayer
10
170.9095313
20
57.4587228
40
0.5153497
50
202.028662
51
236.1457543
0
ARC
8
right_labelLayer
10
171.014583
20
57.5921121
40
0.6847683
50
235.0636297
51
238.5042661
0
ARC
8
right_labelLayer
10
171.1367023
20
57.8102319
40
0.9346057
50
239.1065858
51
254.486324
0
ARC
8
right_labelLayer
10
171.2995311
20
58.3716631
40
1.5191485
50
254.2324464
51
263.4937547
0
ARC
8
right_labelLayer
10
171.4018142
20
59.2380054
40
2.3915037
50
263.4109146
51
270.145667
0
ARC
8
right_labelLayer
10
171.4128257
20
60.0442326
40
3.197727
50
269.9116389
51
269.9976628
0
ARC
8
right_labelLayer
10
171.4266816
20
60.7696738
40
3.9231931
50
269.7957384
51
275.3991396
0
ARC
8
right_labelLayer
10
171.5735129
20
59.2623242
40
2.4087192
50
275.2957082
51
283.3515561
0
ARC
8
right_labelLayer
10
171.8127383
20
58.2769907
40
1.3947843
50
283.1370814
51
295.8573384
0
ARC
8
right_labelLayer
10
171.9899779
20
57.890048
40
0.9693257
50
296.404888
51
301.800801
0
ARC
8
right_labelLayer
10
172.0594939
20
57.7942237
40
0.8512968
50
301.2230296
51
318.6238003
0
ARC
8
right_labelLayer
10
172.2162411
20
57.6494301
40
0.6379871
50
319.0765382
51
1.1406781
0
ARC
8
right_labelLayer
10
172.064543
20
57.6683866
40
0.7895833
50
359.5460367
51
10.9904555
0
ARC
8
right_labelLayer
10
172.3695297
20
57.7304206
40
0.4783717
50
10.6608509
51
30.9361421
0
ARC
8
right_labelLayer
10
172.4662307
20
57.7840854
40
0.3678575
50
31.5096097
51
58.077709
0
ARC
8
right_labelLayer
10
172.3755976
20
57.621801
40
0.5535942
50
58.9972851
51
73.8585978
0
ARC
8
right_labelLayer
10
172.1924053
20
57.0220784
40
1.1806401
50
73.4100644
51
81.5906758
0
ARC
8
right_labelLayer
10
172.0371917
20
56.0176313
40
2.1969971
50
81.4172377
51
86.5756585
0
ARC
8
right_labelLayer
10
171.942076
20
54.5042581
40
3.7133524
50
86.5054317
51
90.139919
0
ARC
8
right_labelLayer
10
171.2250528
20
56.8761059
40
1.3415194
50
89.6435589
51
100.0208977
0
ARC
8
right_labelLayer
10
171.1407364
20
57.3347864
40
0.8751707
50
99.8103292
51
116.8229716
0
ARC
8
right_labelLayer
10
171.0586021
20
57.5079963
40
0.6835529
50
117.2304602
51
130.5023738
0
ARC
8
right_labelLayer
10
171.016432
20
57.5621939
40
0.6149616
50
130.7944593
51
169.0413384
0
ARC
8
right_labelLayer
10
171.3269768
20
57.4890593
40
0.9338337
50
168.2580411
51
180.3819734
0
ARC
8
right_labelLayer
10
171.8487034
20
60.7401364
40
1.1391664
50
179.5617647
51
191.6528445
0
ARC
8
right_labelLayer
10
171.4526248
20
60.6545635
40
0.7339769
50
191.3555246
51
213.3660343
0
ARC
8
right_labelLayer
10
171.3575078
20
60.5996414
40
0.6243646
50
213.9573447
51
227.7970956
0
ARC
8
right_labelLayer
10
171.4402601
20
60.7000073
40
0.7543269
50
228.2620379
51
254.7341761
0
ARC
8
right_labelLayer
10
171.5459856
20
61.0624374
40
1.1318248
50
254.4016911
51
267.4348327
0
ARC
8
right_labelLayer
10
171.5735632
20
61.4322746
40
1.502566
50
267.0154658
51
270.0324449
0
ARC
8
right_labelLayer
10
171.5915963
20
61.2009756
40
1.2713829
50
269.2256455
51
284.3773472
0
ARC
8
right_labelLayer
10
171.7648837
20
60.597243
40
0.6437802
50
282.7796739
51
346.4828448
0
ARC
8
right_labelLayer
10
171.2467932
20
60.7439951
40
1.1820181
50
345.4362376
51
0.746558
0
ARC
8
right_labelLayer
10
171.1739685
20
60.7773411
40
1.2548707
50
359.1806329
51
15.0431331
0
ARC
8
right_labelLayer
10
171.7425744
20
60.9432083
40
0.6628201
50
13.9535849
51
77.6673756
0
ARC
8
right_labelLayer
10
171.5794368
20
60.3585961
40
1.2692551
50
76.1094642
51
90.7028507
0
ARC
8
right_labelLayer
10
171.5550176
20
60.4032471
40
1.2245405
50
89.5859284
51
101.3334396
0
ARC
8
right_labelLayer
10
171.4675069
20
60.8206298
40
0.7981083
50
101.0620134
51
121.9739339
0
ARC
8
right_labelLayer
10
171.4060021
20
60.931269
40
0.671716
50
122.5209762
51
134.9966886
0
ARC
8
right_labelLayer
10
171.4313284
20
60.9160932
40
0.7003916
50
135.5839935
51
163.0016128
0
ARC
8
right_labelLayer
10
171.8011945
20
60.7948649
40
1.0895678
50
162.5912416
51
175.7342867
0
ARC
8
right_labelLayer
10
172.2447677
20
60.7511667
40
1.5351991
50
175.3393019
51
180.0864865
0
LINE
8
right_labelLayer
10
177.4771484
20
58.1297088
11
176.8935547
21
58.1297088
0
LINE
8
right_labelLayer
10
176.8935547
20
58.1297088
11
176.8935547
21
60.6222869
0
LINE
8
right_labelLayer
10
174.8404297
20
60.1441619
11
174.8404297
21
58.1297088
0
LINE
8
right_labelLayer
10
174.8404297
20
58.1297088
11
174.2568359
21
58.1297088
0
LINE
8
right_labelLayer
10
174.2568359
20
58.1297088
11
174.2568359
21
63.6000213
0
LINE
8
right_labelLayer
10
174.2568359
20
63.6000213
11
174.8404297
21
63.6000213
0
LINE
8
right_labelLayer
10
174.8404297
20
63.6000213
11
174.8404297
21
61.9441619
0
LINE
8
right_labelLayer
10
174.8123047
20
61.4484588
11
174.8474609
21
61.4484588
0
LINE
8
right_labelLayer
10
177.4771484
20
60.6433806
11
177.4771484
21
58.1297088
0
ARC
8
right_labelLayer
10
175.2439139
20
60.6317477
40
1.6496679
50
359.6714069
51
8.6877457
0
ARC
8
right_labelLayer
10
175.8553232
20
60.7287136
40
1.0306331
50
8.4931545
51
22.6579838
0
ARC
8
right_labelLayer
10
176.1659696
20
60.8578095
40
0.6942309
50
22.7023626
51
42.3420094
0
ARC
8
right_labelLayer
10
176.2008829
20
60.8735134
40
0.6579554
50
43.3790917
51
71.5385722
0
ARC
8
right_labelLayer
10
176.0703083
20
60.5086497
40
1.0454236
50
71.0828628
51
84.3690894
0
ARC
8
right_labelLayer
10
176.0116946
20
60.0102625
40
1.547186
50
84.0198998
51
90.1509945
0
ARC
8
right_labelLayer
10
175.9950409
20
59.7914356
40
1.7660523
50
89.5919848
51
100.3594747
0
ARC
8
right_labelLayer
10
175.8699897
20
60.4486072
40
1.0971169
50
100.1068248
51
118.0846882
0
ARC
8
right_labelLayer
10
175.7428006
20
60.6981857
40
0.817065
50
118.4551294
51
139.6706319
0
ARC
8
right_labelLayer
10
175.8704926
20
60.6109061
40
0.9710286
50
140.6208568
51
160.5048468
0
ARC
8
right_labelLayer
10
176.5435435
20
60.3617457
40
1.6886761
50
160.1567071
51
171.5313044
0
ARC
8
right_labelLayer
10
177.6325516
20
60.1892029
40
2.7912393
50
171.3201983
51
178.3406812
0
ARC
8
right_labelLayer
10
178.6068516
20
60.1456771
40
3.7664221
50
178.1080065
51
180.0230502
0
ARC
8
right_labelLayer
10
169.5906414
20
61.937899
40
5.2497921
50
357.8674468
51
0.0683527
0
ARC
8
right_labelLayer
10
171.3742293
20
61.8698498
40
3.4649074
50
354.9827694
51
357.8944358
0
ARC
8
right_labelLayer
10
172.5517792
20
61.7673104
40
2.2829019
50
351.971281
51
354.961774
0
ARC
8
right_labelLayer
10
175.835971
20
60.8301114
40
1.1659784
50
119.831622
51
147.9725885
0
ARC
8
right_labelLayer
10
175.9771917
20
60.6131571
40
1.4245094
50
116.6658755
51
120.4181903
0
ARC
8
right_labelLayer
10
176.0035191
20
60.5439753
40
1.4981673
50
96.6652353
51
116.378252
0
ARC
8
right_labelLayer
10
176.0603226
20
60.152064
40
1.8940544
50
89.8927766
51
96.9959109
0
ARC
8
right_labelLayer
10
176.0784832
20
59.6784341
40
2.367726
50
80.6862872
51
90.3536901
0
ARC
8
right_labelLayer
10
176.2259156
20
60.5456014
40
1.4881391
50
65.6022703
51
80.8844326
0
ARC
8
right_labelLayer
10
176.4029479
20
60.9443195
40
1.0519058
50
46.7401139
51
65.4130227
0
ARC
8
right_labelLayer
10
176.4149838
20
60.9823152
40
1.0161339
50
19.2204083
51
45.7660765
0
ARC
8
right_labelLayer
10
175.8290699
20
60.7651118
40
1.6409381
50
6.4734008
51
19.6468026
0
ARC
8
right_labelLayer
10
174.9535875
20
60.6524324
40
2.523577
50
359.7944862
51
6.7743995
0
LINE
8
right_labelLayer
10
180.4478516
20
58.6113494
11
180.4478516
21
58.164865
0
LINE
8
right_labelLayer
10
178.7181641
20
59.2371306
11
178.7181641
21
61.5293181
0
LINE
8
right_labelLayer
10
178.7181641
20
61.5293181
11
178.1662109
21
61.5293181
0
LINE
8
right_labelLayer
10
178.1662109
20
61.5293181
11
178.1662109
21
61.8105681
0
LINE
8
right_labelLayer
10
178.1662109
20
61.8105681
11
178.7181641
21
62.0531463
0
LINE
8
right_labelLayer
10
178.7181641
20
62.0531463
11
178.9642578
21
62.8758025
0
LINE
8
right_labelLayer
10
178.9642578
20
62.8758025
11
179.3017578
21
62.8758025
0
LINE
8
right_labelLayer
10
179.3017578
20
62.8758025
11
179.3017578
21
61.9828338
0
LINE
8
right_labelLayer
10
179.3017578
20
61.9828338
11
180.4197266
21
61.9828338
0
LINE
8
right_labelLayer
10
180.4197266
20
61.9828338
11
180.4197266
21
61.5293181
0
LINE
8
right_labelLayer
10
180.4197266
20
61.5293181
11
179.3017578
21
61.5293181
0
LINE
8
right_labelLayer
10
179.3017578
20
61.5293181
11
179.3017578
21
59.26174
0
ARC
8
right_labelLayer
10
179.9245114
20
60.4576331
40
1.9166004
50
269.8803132
51
278.3027971
0
ARC
8
right_labelLayer
10
179.9436842
20
60.3024684
40
1.7602965
50
278.4145937
51
279.009251
0
ARC
8
right_labelLayer
10
179.727671
20
61.6825885
40
3.1572178
50
278.9589785
51
280.5103195
0
ARC
8
right_labelLayer
10
179.9326168
20
60.5828699
40
2.0385656
50
280.4848914
51
282.6267735
0
ARC
8
right_labelLayer
10
180.1124065
20
59.7841093
40
1.2198218
50
282.5876473
51
285.5796174
0
ARC
8
right_labelLayer
10
180.2025384
20
59.4526378
40
0.8763246
50
285.7238148
51
286.2562754
0
ARC
8
right_labelLayer
10
180.2024874
20
58.6838254
40
0.5740414
50
287.9889567
51
295.3047586
0
ARC
8
right_labelLayer
10
180.0640378
20
59.1027068
40
1.0152066
50
283.3069675
51
288.1197214
0
ARC
8
right_labelLayer
10
179.9177812
20
59.7127785
40
1.6425632
50
280.0071046
51
283.3736158
0
ARC
8
right_labelLayer
10
179.8200891
20
60.2428846
40
2.181584
50
279.1860596
51
280.1144988
0
ARC
8
right_labelLayer
10
179.7598522
20
60.585551
40
2.5294766
50
275.5260304
51
279.2938957
0
ARC
8
right_labelLayer
10
179.8275405
20
59.8785719
40
1.8192651
50
270.8933822
51
275.5482951
0
ARC
8
right_labelLayer
10
179.8360353
20
59.5573504
40
1.4979542
50
270.0037298
51
270.7600711
0
ARC
8
right_labelLayer
10
179.8125824
20
59.5834713
40
1.524257
50
253.78477
51
270.8852789
0
ARC
8
right_labelLayer
10
179.6319984
20
58.9676141
40
0.8824726
50
190.3817627
51
253.8772501
0
ARC
8
right_labelLayer
10
180.5524369
20
59.2164837
40
1.8343889
50
179.355094
51
192.8477427
0
ARC
8
right_labelLayer
10
180.4768896
20
59.2543892
40
1.1751548
50
179.6416003
51
189.7506163
0
ARC
8
right_labelLayer
10
180.0620419
20
59.1803949
40
0.7537729
50
189.5479093
51
205.7873549
0
ARC
8
right_labelLayer
10
179.8915558
20
59.1017789
40
0.5660742
50
206.1294715
51
221.4084052
0
ARC
8
right_labelLayer
10
179.8724389
20
59.0872732
40
0.5421447
50
221.5949219
51
262.3505224
0
ARC
8
right_labelLayer
10
179.9179033
20
59.3210764
40
0.7800438
50
261.3267161
51
270.1913099
0
LINE
8
bottom_outsideCutPath
10
229
20
203
11
229
21
195
0
LINE
8
bottom_outsideCutPath
10
229
20
195
11
226
21
195
0
LINE
8
bottom_outsideCutPath
10
226
20
195
11
226
21
189
0
LINE
8
bottom_outsideCutPath
10
226
20
189
11
229
21
189
0
LINE
8
bottom_outsideCutPath
10
229
20
189
11
229
21
183
0
LINE
8
bottom_outsideCutPath
10
229
20
183
11
226
21
183
0
LINE
8
bottom_outsideCutPath
10
226
20
183
11
226
21
177
0
LINE
8
bottom_outsideCutPath
10
226
20
177
11
229
21
177
0
LINE
8
bottom_outsideCutPath
10
229
20
177
11
229
21
171
0
LINE
8
bottom_outsideCutPath
10
229
20
171
11
226
21
171
0
LINE
8
bottom_outsideCutPath
10
226
20
171
11
226
21
165
0
LINE
8
bottom_outsideCutPath
10
226
20
165
11
229
21
165
0
LINE
8
bottom_outsideCutPath
10
229
20
165
11
229
21
159
0
LINE
8
bottom_outsideCutPath
10
229
20
159
11
226
21
159
0
LINE
8
bottom_outsideCutPath
10
226
20
159
11
226
21
153
0
LINE
8
bottom_outsideCutPath
10
226
20
153
11
229
21
153
0
LINE
8
bottom_outsideCutPath
10
229
20
153
11
229
21
147
0
LINE
8
bottom_outsideCutPath
10
229
20
147
11
226
21
147
0
LINE
8
bottom_outsideCutPath
10
226
20
147
11
226
21
141
0
LINE
8
bottom_outsideCutPath
10
226
20
141
11
229
21
141
0
LINE
8
bottom_outsideCutPath
10
229
20
141
11
229
21
135
0
LINE
8
bottom_outsideCutPath
10
229
20
135
11
226
21
135
0
LINE
8
bottom_outsideCutPath
10
226
20
135
11
226
21
129
0
LINE
8
bottom_outsideCutPath
10
226
20
129
11
229
21
129
0
LINE
8
bottom_outsideCutPath
10
229
20
129
11
229
21
123
0
LINE
8
bottom_outsideCutPath
10
229
20
123
11
226
21
123
0
LINE
8
bottom_outsideCutPath
10
226
20
123
11
226
21
117
0
LINE
8
bottom_outsideCutPath
10
226
20
117
11
229
21
117
0
LINE
8
bottom_outsideCutPath
10
229
20
117
11
229
21
111
0
LINE
8
bottom_outsideCutPath
10
229
20
111
11
229
21
109
0
LINE
8
bottom_outsideCutPath
10
229
20
109
11
235
21
109
0
LINE
8
bottom_outsideCutPath
10
235
20
109
11
235
21
106
0
LINE
8
bottom_outsideCutPath
10
235
20
106
11
241
21
106
0
LINE
8
bottom_outsideCutPath
10
241
20
106
11
241
21
109
0
LINE
8
bottom_outsideCutPath
10
241
20
109
11
247
21
109
0
LINE
8
bottom_outsideCutPath
10
247
20
109
11
247
21
106
0
LINE
8
bottom_outsideCutPath
10
247
20
106
11
253
21
106
0
LINE
8
bottom_outsideCutPath
10
253
20
106
11
253
21
109
0
LINE
8
bottom_outsideCutPath
10
253
20
109
11
259
21
109
0
LINE
8
bottom_outsideCutPath
10
259
20
109
11
259
21
106
0
LINE
8
bottom_outsideCutPath
10
259
20
106
11
265
21
106
0
LINE
8
bottom_outsideCutPath
10
265
20
106
11
265
21
109
0
LINE
8
bottom_outsideCutPath
10
265
20
109
11
271
21
109
0
LINE
8
bottom_outsideCutPath
10
271
20
109
11
271
21
106
0
LINE
8
bottom_outsideCutPath
10
271
20
106
11
277
21
106
0
LINE
8
bottom_outsideCutPath
10
277
20
106
11
277
21
109
0
LINE
8
bottom_outsideCutPath
10
277
20
109
11
283
21
109
0
LINE
8
bottom_outsideCutPath
10
283
20
109
11
283
21
106
0
LINE
8
bottom_outsideCutPath
10
283
20
106
11
289
21
106
0
LINE
8
bottom_outsideCutPath
10
289
20
106
11
289
21
109
0
LINE
8
bottom_outsideCutPath
10
289
20
109
11
295
21
109
0
LINE
8
bottom_outsideCutPath
10
295
20
109
11
295
21
106
0
LINE
8
bottom_outsideCutPath
10
295
20
106
11
301
21
106
0
LINE
8
bottom_outsideCutPath
10
301
20
106
11
301
21
109
0
LINE
8
bottom_outsideCutPath
10
301
20
109
11
307
21
109
0
LINE
8
bottom_outsideCutPath
10
307
20
109
11
307
21
106
0
LINE
8
bottom_outsideCutPath
10
307
20
106
11
313
21
106
0
LINE
8
bottom_outsideCutPath
10
313
20
106
11
313
21
109
0
LINE
8
bottom_outsideCutPath
10
313
20
109
11
319
21
109
0
LINE
8
bottom_outsideCutPath
10
319
20
109
11
319
21
106
0
LINE
8
bottom_outsideCutPath
10
319
20
106
11
325
21
106
0
LINE
8
bottom_outsideCutPath
10
325
20
106
11
325
21
109
0
LINE
8
bottom_outsideCutPath
10
325
20
109
11
331
21
109
0
LINE
8
bottom_outsideCutPath
10
331
20
109
11
331
21
106
0
LINE
8
bottom_outsideCutPath
10
331
20
106
11
337
21
106
0
LINE
8
bottom_outsideCutPath
10
337
20
106
11
337
21
109
0
LINE
8
bottom_outsideCutPath
10
337
20
109
11
343
21
109
0
LINE
8
bottom_outsideCutPath
10
343
20
109
11
343
21
109
0
LINE
8
bottom_outsideCutPath
10
343
20
109
11
343
21
117
0
LINE
8
bottom_outsideCutPath
10
343
20
117
11
346
21
117
0
LINE
8
bottom_outsideCutPath
10
346
20
117
11
346
21
123
0
LINE
8
bottom_outsideCutPath
10
346
20
123
11
343
21
123
0
LINE
8
bottom_outsideCutPath
10
343
20
123
11
343
21
129
0
LINE
8
bottom_outsideCutPath
10
343
20
129
11
346
21
129
0
LINE
8
bottom_outsideCutPath
10
346
20
129
11
346
21
135
0
LINE
8
bottom_outsideCutPath
10
346
20
135
11
343
21
135
0
LINE
8
bottom_outsideCutPath
10
343
20
135
11
343
21
141
0
LINE
8
bottom_outsideCutPath
10
343
20
141
11
346
21
141
0
LINE
8
bottom_outsideCutPath
10
346
20
141
11
346
21
147
0
LINE
8
bottom_outsideCutPath
10
346
20
147
11
343
21
147
0
LINE
8
bottom_outsideCutPath
10
343
20
147
11
343
21
153
0
LINE
8
bottom_outsideCutPath
10
343
20
153
11
346
21
153
0
LINE
8
bottom_outsideCutPath
10
346
20
153
11
346
21
159
0
LINE
8
bottom_outsideCutPath
10
346
20
159
11
343
21
159
0
LINE
8
bottom_outsideCutPath
10
343
20
159
11
343
21
165
0
LINE
8
bottom_outsideCutPath
10
343
20
165
11
346
21
165
0
LINE
8
bottom_outsideCutPath
10
346
20
165
11
346
21
171
0
LINE
8
bottom_outsideCutPath
10
346
20
171
11
343
21
171
0
LINE
8
bottom_outsideCutPath
10
343
20
171
11
343
21
177
0
LINE
8
bottom_outsideCutPath
10
343
20
177
11
346
21
177
0
LINE
8
bottom_outsideCutPath
10
346
20
177
11
346
21
183
0
LINE
8
bottom_outsideCutPath
10
346
20
183
11
343
21
183
0
LINE
8
bottom_outsideCutPath
10
343
20
183
11
343
21
189
0
LINE
8
bottom_outsideCutPath
10
343
20
189
11
346
21
189
0
LINE
8
bottom_outsideCutPath
10
346
20
189
11
346
21
195
0
LINE
8
bottom_outsideCutPath
10
346
20
195
11
343
21
195
0
LINE
8
bottom_outsideCutPath
10
343
20
195
11
343
21
201
0
LINE
8
bottom_outsideCutPath
10
343
20
201
11
343
21
203
0
LINE
8
bottom_outsideCutPath
10
343
20
203
11
337
21
203
0
LINE
8
bottom_outsideCutPath
10
337
20
203
11
337
21
206
0
LINE
8
bottom_outsideCutPath
10
337
20
206
11
331
21
206
0
LINE
8
bottom_outsideCutPath
10
331
20
206
11
331
21
203
0
LINE
8
bottom_outsideCutPath
10
331
20
203
11
325
21
203
0
LINE
8
bottom_outsideCutPath
10
325
20
203
11
325
21
206
0
LINE
8
bottom_outsideCutPath
10
325
20
206
11
319
21
206
0
LINE
8
bottom_outsideCutPath
10
319
20
206
11
319
21
203
0
LINE
8
bottom_outsideCutPath
10
319
20
203
11
313
21
203
0
LINE
8
bottom_outsideCutPath
10
313
20
203
11
313
21
206
0
LINE
8
bottom_outsideCutPath
10
313
20
206
11
307
21
206
0
LINE
8
bottom_outsideCutPath
10
307
20
206
11
307
21
203
0
LINE
8
bottom_outsideCutPath
10
307
20
203
11
301
21
203
0
LINE
8
bottom_outsideCutPath
10
301
20
203
11
301
21
206
0
LINE
8
bottom_outsideCutPath
10
301
20
206
11
295
21
206
0
LINE
8
bottom_outsideCutPath
10
295
20
206
11
295
21
203
0
LINE
8
bottom_outsideCutPath
10
295
20
203
11
289
21
203
0
LINE
8
bottom_outsideCutPath
10
289
20
203
11
289
21
206
0
LINE
8
bottom_outsideCutPath
10
289
20
206
11
283
21
206
0
LINE
8
bottom_outsideCutPath
10
283
20
206
11
283
21
203
0
LINE
8
bottom_outsideCutPath
10
283
20
203
11
277
21
203
0
LINE
8
bottom_outsideCutPath
10
277
20
203
11
277
21
206
0
LINE
8
bottom_outsideCutPath
10
277
20
206
11
271
21
206
0
LINE
8
bottom_outsideCutPath
10
271
20
206
11
271
21
203
0
LINE
8
bottom_outsideCutPath
10
271
20
203
11
265
21
203
0
LINE
8
bottom_outsideCutPath
10
265
20
203
11
265
21
206
0
LINE
8
bottom_outsideCutPath
10
265
20
206
11
259
21
206
0
LINE
8
bottom_outsideCutPath
10
259
20
206
11
259
21
203
0
LINE
8
bottom_outsideCutPath
10
259
20
203
11
253
21
203
0
LINE
8
bottom_outsideCutPath
10
253
20
203
11
253
21
206
0
LINE
8
bottom_outsideCutPath
10
253
20
206
11
247
21
206
0
LINE
8
bottom_outsideCutPath
10
247
20
206
11
247
21
203
0
LINE
8
bottom_outsideCutPath
10
247
20
203
11
241
21
203
0
LINE
8
bottom_outsideCutPath
10
241
20
203
11
241
21
206
0
LINE
8
bottom_outsideCutPath
10
241
20
206
11
235
21
206
0
LINE
8
bottom_outsideCutPath
10
235
20
206
11
235
21
203
0
LINE
8
bottom_outsideCutPath
10
235
20
203
11
229
21
203
0
LINE
8
bottom_outsideCutPath
10
229
20
203
11
229
21
203
0
LINE
8
bottom_labelLayer
10
254.7206558
20
149.8772058
11
254.6034683
21
149.8772058
0
LINE
8
bottom_labelLayer
10
254.6034683
20
149.8772058
11
254.2616714
21
148.5002527
0
LINE
8
bottom_labelLayer
10
254.2616714
20
148.5002527
11
253.099562
21
148.5002527
0
LINE
8
bottom_labelLayer
10
253.099562
20
148.5002527
11
253.099562
21
163.6955652
0
LINE
8
bottom_labelLayer
10
253.099562
20
163.6955652
11
254.7206558
21
163.6955652
0
LINE
8
bottom_labelLayer
10
254.7206558
20
163.6955652
11
254.7206558
21
160.0041589
0
LINE
8
bottom_labelLayer
10
254.6425308
20
157.7775964
11
254.7206558
21
157.7775964
0
ARC
8
bottom_labelLayer
10
258.1286614
20
154.424771
40
4.9546266
50
74.2393364
51
90.5623784
0
ARC
8
bottom_labelLayer
10
258.4562775
20
155.6266471
40
3.7089652
50
38.563135
51
74.0670337
0
ARC
8
bottom_labelLayer
10
257.6131726
20
154.9710849
40
4.776887
50
16.4709282
51
38.4075249
0
ARC
8
bottom_labelLayer
10
255.1843174
20
154.2094659
40
7.3221308
50
5.1338483
51
16.7973468
0
ARC
8
bottom_labelLayer
10
252.1180602
20
153.8837477
40
10.4053536
50
359.8779407
51
5.4093585
0
ARC
8
bottom_labelLayer
10
253.0186917
20
153.8055057
40
9.5048639
50
350.6562881
51
0.3380252
0
ARC
8
bottom_labelLayer
10
256.3322452
20
153.2419087
40
6.1437972
50
335.8306022
51
350.8254751
0
ARC
8
bottom_labelLayer
10
257.7898287
20
152.6127944
40
4.5564622
50
321.3161305
51
335.5436301
0
ARC
8
bottom_labelLayer
10
258.347059
20
152.1587347
40
3.8376919
50
274.0640061
51
321.4081015
0
ARC
8
bottom_labelLayer
10
258.0874585
20
153.8031469
40
5.4982118
50
269.9225965
51
275.5481661
0
ARC
8
bottom_labelLayer
10
258.052694
20
153.2219964
40
4.9171322
50
255.7755416
51
270.3185374
0
ARC
8
bottom_labelLayer
10
257.9123782
20
152.5985788
40
4.2783843
50
245.9801859
51
255.5455587
0
ARC
8
bottom_labelLayer
10
257.6405841
20
151.9665152
40
3.5904312
50
215.5850261
51
245.8361642
0
ARC
8
bottom_labelLayer
10
220.9220797
20
159.9755857
40
33.7985882
50
358.1123236
51
0.0484378
0
ARC
8
bottom_labelLayer
10
230.328985
20
159.6597695
40
24.3863854
50
355.7238501
51
358.1259023
0
ARC
8
bottom_labelLayer
10
234.4878492
20
159.3738858
40
20.2177974
50
355.4715177
51
355.6529673
0
ARC
8
bottom_labelLayer
10
257.743925
20
155.6693892
40
3.6857421
50
95.1835136
51
145.1108959
0
ARC
8
bottom_labelLayer
10
258.0678892
20
153.8425045
40
5.5366677
50
89.8743539
51
96.8145168
0
ARC
8
bottom_labelLayer
10
257.8117164
20
153.4664542
40
4.5554093
50
89.5731223
51
100.7324143
0
ARC
8
bottom_labelLayer
10
257.4744886
20
155.1702462
40
2.8186562
50
100.4469271
51
119.6700806
0
ARC
8
bottom_labelLayer
10
257.1617781
20
155.7548947
40
2.1559401
50
120.1402874
51
142.4248999
0
ARC
8
bottom_labelLayer
10
257.6791349
20
155.4126468
40
2.7750293
50
143.3382417
51
161.2559929
0
ARC
8
bottom_labelLayer
10
259.8425996
20
154.6445424
40
5.070677
50
160.8926193
51
171.2334482
0
ARC
8
bottom_labelLayer
10
263.4543158
20
154.0618873
40
8.7290381
50
171.0667895
51
177.8456849
0
ARC
8
bottom_labelLayer
10
267.210283
20
153.8708574
40
12.4896305
50
177.6176676
51
180.042556
0
ARC
8
bottom_labelLayer
10
265.4391322
20
153.8197267
40
10.7185581
50
179.7762696
51
185.7075172
0
ARC
8
bottom_labelLayer
10
261.2131467
20
153.3842998
40
6.4702325
50
185.5924625
51
194.2050865
0
ARC
8
bottom_labelLayer
10
258.5060798
20
152.6817189
40
3.6735677
50
193.9430285
51
208.0218386
0
ARC
8
bottom_labelLayer
10
257.4107846
20
152.124511
40
2.4449999
50
208.5536273
51
217.560509
0
ARC
8
bottom_labelLayer
10
257.3215475
20
152.0873964
40
2.3517682
50
218.1690497
51
253.8047105
0
ARC
8
bottom_labelLayer
10
257.7577528
20
153.4322609
40
3.7651815
50
253.1382373
51
266.8483309
0
ARC
8
bottom_labelLayer
10
257.8800739
20
154.8747986
40
5.2124386
50
266.3775722
51
270.0510514
0
ARC
8
bottom_labelLayer
10
257.919298
20
152.8938162
40
3.2316392
50
269.3869014
51
285.8630523
0
ARC
8
bottom_labelLayer
10
258.1593886
20
152.0260932
40
2.3313432
50
286.0162899
51
326.849735
0
ARC
8
bottom_labelLayer
10
257.0005884
20
152.7937556
40
3.7213332
50
326.7105084
51
343.6661789
0
ARC
8
bottom_labelLayer
10
254.83138
20
153.4565956
40
5.9894605
50
343.4171354
51
353.6369032
0
ARC
8
bottom_labelLayer
10
251.5550253
20
153.8453559
40
9.288746
50
353.4934852
51
0.2205553
0
ARC
8
bottom_labelLayer
10
251.2662059
20
153.9198781
40
9.5775752
50
359.7680902
51
6.3095251
0
ARC
8
bottom_labelLayer
10
254.8738995
20
154.3338833
40
5.9462546
50
6.1648601
51
16.0396518
0
ARC
8
bottom_labelLayer
10
257.1979048
20
155.0187697
40
3.5235221
50
15.7779193
51
32.0151484
0
ARC
8
bottom_labelLayer
10
257.9224684
20
155.4336904
40
2.6893853
50
32.70347
51
35.5241319
0
ARC
8
bottom_labelLayer
10
258.1876582
20
155.6221702
40
2.3640397
50
35.5408356
51
79.8011276
0
ARC
8
bottom_labelLayer
10
257.8701925
20
154.2725645
40
3.7492528
50
78.6781247
51
90.3749718
0
ARC
8
bottom_labelLayer
10
266.2202725
20
153.8051309
40
8.3736204
50
349.1761945
51
0.3862568
0
ARC
8
bottom_labelLayer
10
269.0394777
20
153.2431175
40
5.4990771
50
330.2507047
51
349.4116462
0
ARC
8
bottom_labelLayer
10
269.9070862
20
152.7921683
40
4.5222197
50
318.143971
51
329.7566252
0
ARC
8
bottom_labelLayer
10
270.0636745
20
152.6666786
40
4.3218687
50
278.8959183
51
317.9979086
0
ARC
8
bottom_labelLayer
10
269.6602013
20
154.5997537
40
6.2948732
50
269.7502763
51
279.8033236
0
ARC
8
bottom_labelLayer
10
269.5947651
20
153.5105914
40
5.2057899
50
253.5436962
51
270.418238
0
ARC
8
bottom_labelLayer
10
269.4214714
20
152.8402519
40
4.5138811
50
238.8115441
51
253.242846
0
ARC
8
bottom_labelLayer
10
269.3655465
20
152.7277885
40
4.3887236
50
207.7946962
51
238.6757996
0
ARC
8
bottom_labelLayer
10
270.1680336
20
153.2192729
40
5.328149
50
205.6559791
51
208.4461025
0
ARC
8
bottom_labelLayer
10
270.7861868
20
153.4768422
40
5.9969824
50
188.9102503
51
205.3171481
0
ARC
8
bottom_labelLayer
10
272.869338
20
153.8296592
40
8.1096824
50
179.7744696
51
189.0932788
0
ARC
8
bottom_labelLayer
10
273.176627
20
153.9185913
40
8.4171018
50
169.244298
51
180.388077
0
ARC
8
bottom_labelLayer
10
270.3182487
20
154.4835881
40
5.5035418
50
150.7111564
51
169.4695354
0
ARC
8
bottom_labelLayer
10
269.4057734
20
154.9521738
40
4.4786339
50
138.175962
51
150.2287147
0
ARC
8
bottom_labelLayer
10
269.2539753
20
155.0686613
40
4.2878596
50
99.175935
51
137.9832793
0
ARC
8
bottom_labelLayer
10
269.6717451
20
153.1025934
40
6.2961655
50
89.7326434
51
100.0759878
0
ARC
8
bottom_labelLayer
10
269.755241
20
153.9516734
40
5.4472856
50
73.5222665
51
90.5692191
0
ARC
8
bottom_labelLayer
10
270.0746919
20
155.1123218
40
4.2437569
50
41.1445735
51
73.2133783
0
ARC
8
bottom_labelLayer
10
269.4648883
20
154.588204
40
5.047824
50
13.5014302
51
41.0703483
0
ARC
8
bottom_labelLayer
10
267.1088985
20
153.9716734
40
7.4828084
50
1.1277281
51
13.8799962
0
ARC
8
bottom_labelLayer
10
265.0796324
20
153.8629331
40
9.5140701
50
359.991856
51
1.5419431
0
ARC
8
bottom_labelLayer
10
274.6484866
20
153.819452
40
8.2091889
50
179.7059623
51
187.9160759
0
ARC
8
bottom_labelLayer
10
271.6376131
20
153.3869441
40
5.1674586
50
187.7639332
51
200.097688
0
ARC
8
bottom_labelLayer
10
269.9789335
20
152.7792015
40
3.4009457
50
200.0845876
51
216.9131503
0
ARC
8
bottom_labelLayer
10
269.3732409
20
152.3467092
40
2.6569704
50
217.300954
51
261.7099073
0
ARC
8
bottom_labelLayer
10
269.6544223
20
153.6884754
40
4.0261509
50
260.5033133
51
270.2476938
0
ARC
8
bottom_labelLayer
10
269.7080928
20
153.4275734
40
3.765386
50
269.4481646
51
284.7255643
0
ARC
8
bottom_labelLayer
10
270.006176
20
152.3220773
40
2.620441
50
284.566235
51
322.6333878
0
ARC
8
bottom_labelLayer
10
269.3092423
20
152.825581
40
3.4799996
50
323.0089266
51
342.6390508
0
ARC
8
bottom_labelLayer
10
267.3158573
20
153.4770766
40
5.5770392
50
342.3615704
51
353.7537499
0
ARC
8
bottom_labelLayer
10
264.3749319
20
153.8315641
40
8.539136
50
353.5363189
51
0.2014064
0
ARC
8
bottom_labelLayer
10
264.8255712
20
153.9028657
40
8.0885493
50
359.7075543
51
7.8972827
0
ARC
8
bottom_labelLayer
10
267.7878056
20
154.3275305
40
5.0960791
50
7.7440005
51
20.0690174
0
ARC
8
bottom_labelLayer
10
269.4384981
20
154.9332721
40
3.3377565
50
20.0257107
51
37.4350558
0
ARC
8
bottom_labelLayer
10
269.9861832
20
155.3219016
40
2.6667491
50
37.9577645
51
80.400615
0
ARC
8
bottom_labelLayer
10
269.6749525
20
153.9332181
40
4.0885816
50
79.345353
51
90.3174962
0
ARC
8
bottom_labelLayer
10
269.6173221
20
154.1638869
40
3.8580087
50
89.4805853
51
103.8805168
0
ARC
8
bottom_labelLayer
10
269.2931498
20
155.3983298
40
2.5819124
50
103.4685218
51
142.3118841
0
ARC
8
bottom_labelLayer
10
269.9233629
20
154.9551184
40
3.3517727
50
142.9025565
51
162.3749748
0
ARC
8
bottom_labelLayer
10
271.9091787
20
154.293348
40
5.4448258
50
162.0652994
51
173.1674849
0
ARC
8
bottom_labelLayer
10
275.0056002
20
153.898416
40
8.5662738
50
173.0086063
51
180.2463739
0
LINE
8
bottom_labelLayer
10
282.3573745
20
149.8381433
11
282.3573745
21
148.5979089
0
LINE
8
bottom_labelLayer
10
277.552687
20
151.5764246
11
277.552687
21
157.9436121
0
LINE
8
bottom_labelLayer
10
277.552687
20
157.9436121
11
276.0194839
21
157.9436121
0
LINE
8
bottom_labelLayer
10
276.0194839
20
157.9436121
11
276.0194839
21
158.7248621
0
LINE
8
bottom_labelLayer
10
276.0194839
20
158.7248621
11
277.552687
21
159.3986902
0
LINE
8
bottom_labelLayer
10
277.552687
20
159.3986902
11
278.2362808
21
161.6838464
0
LINE
8
bottom_labelLayer
10
278.2362808
20
161.6838464
11
279.1737808
21
161.6838464
0
LINE
8
bottom_labelLayer
10
279.1737808
20
161.6838464
11
279.1737808
21
159.2033777
0
LINE
8
bottom_labelLayer
10
279.1737808
20
159.2033777
11
282.2792495
21
159.2033777
0
LINE
8
bottom_labelLayer
10
282.2792495
20
159.2033777
11
282.2792495
21
157.9436121
0
LINE
8
bottom_labelLayer
10
282.2792495
20
157.9436121
11
279.1737808
21
157.9436121
0
LINE
8
bottom_labelLayer
10
279.1737808
20
157.9436121
11
279.1737808
21
151.6447839
0
ARC
8
bottom_labelLayer
10
280.9036493
20
154.9667136
40
5.3238944
50
269.8803417
51
278.3028182
0
ARC
8
bottom_labelLayer
10
280.953296
20
154.5593609
40
4.9136514
50
278.4158959
51
279.0076561
0
ARC
8
bottom_labelLayer
10
280.3569458
20
158.3689095
40
8.7695902
50
278.9589695
51
280.5103918
0
ARC
8
bottom_labelLayer
10
280.9262819
20
155.3140436
40
5.6621249
50
280.4847522
51
282.6268451
0
ARC
8
bottom_labelLayer
10
281.4255715
20
153.0958688
40
3.3884538
50
282.5876165
51
285.5795336
0
ARC
8
bottom_labelLayer
10
281.6772309
20
152.1706003
40
2.429599
50
285.7231888
51
286.2566654
0
ARC
8
bottom_labelLayer
10
281.6758211
20
150.0394337
40
1.5945246
50
287.9888406
51
295.3048016
0
ARC
8
bottom_labelLayer
10
281.2912265
20
151.2030151
40
2.8200086
50
283.3069861
51
288.1197567
0
ARC
8
bottom_labelLayer
10
280.8849727
20
152.8976283
40
4.5626327
50
280.0069961
51
283.3735389
0
ARC
8
bottom_labelLayer
10
280.6131648
20
154.3727124
40
6.0625179
50
279.1862135
51
280.1142603
0
ARC
8
bottom_labelLayer
10
280.4462846
20
155.3218604
40
7.0261467
50
275.5260122
51
279.2939725
0
ARC
8
bottom_labelLayer
10
280.6343044
20
153.357948
40
5.0532558
50
270.8932457
51
275.5483966
0
ARC
8
bottom_labelLayer
10
280.6579122
20
152.4608126
40
4.1558726
50
270.0033586
51
270.7606301
0
ARC
8
bottom_labelLayer
10
280.5927396
20
152.5384926
40
4.2340578
50
253.784789
51
270.8852547
0
ARC
8
bottom_labelLayer
10
280.0911164
20
150.8277678
40
2.4513133
50
190.3817699
51
253.8772374
0
ARC
8
bottom_labelLayer
10
282.6478878
20
151.5190729
40
5.0955236
50
179.3551054
51
192.8477577
0
ARC
8
bottom_labelLayer
10
282.43808
20
151.624369
40
3.2643631
50
179.6416773
51
189.7505556
0
ARC
8
bottom_labelLayer
10
281.28569
20
151.4188288
40
2.093823
50
189.5479676
51
205.7873396
0
ARC
8
bottom_labelLayer
10
280.8121041
20
151.2004434
40
1.5724225
50
206.1294051
51
221.408398
0
ARC
8
bottom_labelLayer
10
280.7590057
20
151.1601532
40
1.505957
50
221.5949091
51
262.3505289
0
ARC
8
bottom_labelLayer
10
280.8852971
20
151.8095915
40
2.1667729
50
261.3266216
51
270.1912791
0
LINE
8
bottom_labelLayer
10
289.4179214
20
149.8381433
11
289.4179214
21
148.5979089
0
LINE
8
bottom_labelLayer
10
284.6132339
20
151.5764246
11
284.6132339
21
157.9436121
0
LINE
8
bottom_labelLayer
10
284.6132339
20
157.9436121
11
283.0800308
21
157.9436121
0
LINE
8
bottom_labelLayer
10
283.0800308
20
157.9436121
11
283.0800308
21
158.7248621
0
LINE
8
bottom_labelLayer
10
283.0800308
20
158.7248621
11
284.6132339
21
159.3986902
0
LINE
8
bottom_labelLayer
10
284.6132339
20
159.3986902
11
285.2968276
21
161.6838464
0
LINE
8
bottom_labelLayer
10
285.2968276
20
161.6838464
11
286.2343276
21
161.6838464
0
LINE
8
bottom_labelLayer
10
286.2343276
20
161.6838464
11
286.2343276
21
159.2033777
0
LINE
8
bottom_labelLayer
10
286.2343276
20
159.2033777
11
289.3397964
21
159.2033777
0
LINE
8
bottom_labelLayer
10
289.3397964
20
159.2033777
11
289.3397964
21
157.9436121
0
LINE
8
bottom_labelLayer
10
289.3397964
20
157.9436121
11
286.2343276
21
157.9436121
0
LINE
8
bottom_labelLayer
10
286.2343276
20
157.9436121
11
286.2343276
21
151.6447839
0
ARC
8
bottom_labelLayer
10
287.9641962
20
154.9667136
40
5.3238944
50
269.8803417
51
278.3028182
0
ARC
8
bottom_labelLayer
10
288.0138428
20
154.5593609
40
4.9136514
50
278.4158959
51
279.0076561
0
ARC
8
bottom_labelLayer
10
287.4174927
20
158.3689095
40
8.7695902
50
278.9589695
51
280.5103918
0
ARC
8
bottom_labelLayer
10
287.9868288
20
155.3140436
40
5.6621249
50
280.4847522
51
282.6268451
0
ARC
8
bottom_labelLayer
10
288.4861184
20
153.0958688
40
3.3884538
50
282.5876165
51
285.5795336
0
ARC
8
bottom_labelLayer
10
288.7377778
20
152.1706003
40
2.429599
50
285.7231888
51
286.2566654
0
ARC
8
bottom_labelLayer
10
288.736368
20
150.0394337
40
1.5945246
50
287.9888406
51
295.3048016
0
ARC
8
bottom_labelLayer
10
288.3517733
20
151.2030151
40
2.8200086
50
283.3069861
51
288.1197567
0
ARC
8
bottom_labelLayer
10
287.9455195
20
152.8976283
40
4.5626327
50
280.0069961
51
283.3735389
0
ARC
8
bottom_labelLayer
10
287.6737116
20
154.3727124
40
6.0625179
50
279.1862135
51
280.1142603
0
ARC
8
bottom_labelLayer
10
287.5068315
20
155.3218604
40
7.0261467
50
275.5260122
51
279.2939725
0
ARC
8
bottom_labelLayer
10
287.6948512
20
153.357948
40
5.0532558
50
270.8932457
51
275.5483966
0
ARC
8
bottom_labelLayer
10
287.718459
20
152.4608126
40
4.1558726
50
270.0033586
51
270.7606301
0
ARC
8
bottom_labelLayer
10
287.6532865
20
152.5384926
40
4.2340578
50
253.784789
51
270.8852547
0
ARC
8
bottom_labelLayer
10
287.1516633
20
150.8277678
40
2.4513133
50
190.3817699
51
253.8772374
0
ARC
8
bottom_labelLayer
10
289.7084347
20
151.5190729
40
5.0955236
50
179.3551054
51
192.8477577
0
ARC
8
bottom_labelLayer
10
289.4986269
20
151.624369
40
3.2643631
50
179.6416773
51
189.7505556
0
ARC
8
bottom_labelLayer
10
288.3462369
20
151.4188288
40
2.093823
50
189.5479676
51
205.7873396
0
ARC
8
bottom_labelLayer
10
287.872651
20
151.2004434
40
1.5724225
50
206.1294051
51
221.408398
0
ARC
8
bottom_labelLayer
10
287.8195526
20
151.1601532
40
1.505957
50
221.5949091
51
262.3505289
0
ARC
8
bottom_labelLayer
10
287.945844
20
151.8095915
40
2.1667729
50
261.3266216
51
270.1912791
0
ARC
8
bottom_labelLayer
10
292.4214444
20
153.8051309
40
8.3736204
50
349.1761945
51
0.3862568
0
ARC
8
bottom_labelLayer
10
295.2406496
20
153.2431175
40
5.4990771
50
330.2507047
51
349.4116462
0
ARC
8
bottom_labelLayer
10
296.108258
20
152.7921683
40
4.5222197
50
318.143971
51
329.7566252
0
ARC
8
bottom_labelLayer
10
296.2648464
20
152.6666786
40
4.3218687
50
278.8959183
51
317.9979086
0
ARC
8
bottom_labelLayer
10
295.8613731
20
154.5997537
40
6.2948732
50
269.7502763
51
279.8033236
0
ARC
8
bottom_labelLayer
10
295.795937
20
153.5105914
40
5.2057899
50
253.5436962
51
270.418238
0
ARC
8
bottom_labelLayer
10
295.6226432
20
152.8402519
40
4.5138811
50
238.8115441
51
253.242846
0
ARC
8
bottom_labelLayer
10
295.5667184
20
152.7277885
40
4.3887236
50
207.7946962
51
238.6757996
0
ARC
8
bottom_labelLayer
10
296.3692055
20
153.2192729
40
5.328149
50
205.6559791
51
208.4461025
0
ARC
8
bottom_labelLayer
10
296.9873587
20
153.4768422
40
5.9969824
50
188.9102503
51
205.3171481
0
ARC
8
bottom_labelLayer
10
299.0705098
20
153.8296592
40
8.1096824
50
179.7744696
51
189.0932788
0
ARC
8
bottom_labelLayer
10
299.3777989
20
153.9185913
40
8.4171018
50
169.244298
51
180.388077
0
ARC
8
bottom_labelLayer
10
296.5194206
20
154.4835881
40
5.5035418
50
150.7111564
51
169.4695354
0
ARC
8
bottom_labelLayer
10
295.6069453
20
154.9521738
40
4.4786339
50
138.175962
51
150.2287147
0
ARC
8
bottom_labelLayer
10
295.4551472
20
155.0686613
40
4.2878596
50
99.175935
51
137.9832793
0
ARC
8
bottom_labelLayer
10
295.872917
20
153.1025934
40
6.2961655
50
89.7326434
51
100.0759878
0
ARC
8
bottom_labelLayer
10
295.9564129
20
153.9516734
40
5.4472856
50
73.5222665
51
90.5692191
0
ARC
8
bottom_labelLayer
10
296.2758637
20
155.1123218
40
4.2437569
50
41.1445735
51
73.2133783
0
ARC
8
bottom_labelLayer
10
295.6660602
20
154.588204
40
5.047824
50
13.5014302
51
41.0703483
0
ARC
8
bottom_labelLayer
10
293.3100704
20
153.9716734
40
7.4828084
50
1.1277281
51
13.8799962
0
ARC
8
bottom_labelLayer
10
291.2808043
20
153.8629331
40
9.5140701
50
359.991856
51
1.5419431
0
ARC
8
bottom_labelLayer
10
300.8496584
20
153.819452
40
8.2091889
50
179.7059623
51
187.9160759
0
ARC
8
bottom_labelLayer
10
297.8387849
20
153.3869441
40
5.1674586
50
187.7639332
51
200.097688
0
ARC
8
bottom_labelLayer
10
296.1801054
20
152.7792015
40
3.4009457
50
200.0845876
51
216.9131503
0
ARC
8
bottom_labelLayer
10
295.5744128
20
152.3467092
40
2.6569704
50
217.300954
51
261.7099073
0
ARC
8
bottom_labelLayer
10
295.8555942
20
153.6884754
40
4.0261509
50
260.5033133
51
270.2476938
0
ARC
8
bottom_labelLayer
10
295.9092647
20
153.4275734
40
3.765386
50
269.4481646
51
284.7255643
0
ARC
8
bottom_labelLayer
10
296.2073479
20
152.3220773
40
2.620441
50
284.566235
51
322.6333878
0
ARC
8
bottom_labelLayer
10
295.5104142
20
152.825581
40
3.4799996
50
323.0089266
51
342.6390508
0
ARC
8
bottom_labelLayer
10
293.5170292
20
153.4770766
40
5.5770392
50
342.3615704
51
353.7537499
0
ARC
8
bottom_labelLayer
10
290.5761037
20
153.8315641
40
8.539136
50
353.5363189
51
0.2014064
0
ARC
8
bottom_labelLayer
10
291.0267431
20
153.9028657
40
8.0885493
50
359.7075543
51
7.8972827
0
ARC
8
bottom_labelLayer
10
293.9889775
20
154.3275305
40
5.0960791
50
7.7440005
51
20.0690174
0
ARC
8
bottom_labelLayer
10
295.6396699
20
154.9332721
40
3.3377565
50
20.0257107
51
37.4350558
0
ARC
8
bottom_labelLayer
10
296.187355
20
155.3219016
40
2.6667491
50
37.9577645
51
80.400615
0
ARC
8
bottom_labelLayer
10
295.8761244
20
153.9332181
40
4.0885816
50
79.345353
51
90.3174962
0
ARC
8
bottom_labelLayer
10
295.818494
20
154.1638869
40
3.8580087
50
89.4805853
51
103.8805168
0
ARC
8
bottom_labelLayer
10
295.4943217
20
155.3983298
40
2.5819124
50
103.4685218
51
142.3118841
0
ARC
8
bottom_labelLayer
10
296.1245348
20
154.9551184
40
3.3517727
50
142.9025565
51
162.3749748
0
ARC
8
bottom_labelLayer
10
298.1103506
20
154.293348
40
5.4448258
50
162.0652994
51
173.1674849
0
ARC
8
bottom_labelLayer
10
301.2067721
20
153.898416
40
8.5662738
50
173.0086063
51
180.2463739
0
LINE
8
bottom_labelLayer
10
318.9003433
20
148.5002527
11
317.2792495
21
148.5002527
0
LINE
8
bottom_labelLayer
10
317.2792495
20
148.5002527
11
317.2792495
21
155.4631433
0
LINE
8
bottom_labelLayer
10
312.0741714
20
154.4768152
11
312.0741714
21
148.5002527
0
LINE
8
bottom_labelLayer
10
312.0741714
20
148.5002527
11
310.4530776
21
148.5002527
0
LINE
8
bottom_labelLayer
10
310.4530776
20
148.5002527
11
310.4530776
21
155.4631433
0
LINE
8
bottom_labelLayer
10
305.2577651
20
154.1154871
11
305.2577651
21
148.5002527
0
LINE
8
bottom_labelLayer
10
305.2577651
20
148.5002527
11
303.6366714
21
148.5002527
0
LINE
8
bottom_labelLayer
10
303.6366714
20
148.5002527
11
303.6366714
21
159.2033777
0
LINE
8
bottom_labelLayer
10
303.6366714
20
159.2033777
11
304.9550308
21
159.2033777
0
LINE
8
bottom_labelLayer
10
304.9550308
20
159.2033777
11
305.2187026
21
157.7385339
0
LINE
8
bottom_labelLayer
10
305.2187026
20
157.7385339
11
305.2968276
21
157.7385339
0
LINE
8
bottom_labelLayer
10
311.7421401
20
157.5822839
11
311.8202651
21
157.5822839
0
LINE
8
bottom_labelLayer
10
318.9003433
20
155.4826746
11
318.9003433
21
148.5002527
0
ARC
8
bottom_labelLayer
10
312.4969733
20
155.4886162
40
4.782344
50
359.6948153
51
8.147152
0
ARC
8
bottom_labelLayer
10
314.2584598
20
155.7492964
40
3.0017048
50
7.9864605
51
20.7949836
0
ARC
8
bottom_labelLayer
10
315.2321531
20
156.1222828
40
1.9590239
50
20.7071465
51
40.0217449
0
ARC
8
bottom_labelLayer
10
315.4457648
20
156.2620459
40
1.7058312
50
41.0408115
51
73.1792552
0
ARC
8
bottom_labelLayer
10
315.1366758
20
155.3272025
40
2.6902401
50
72.6395403
51
86.2568077
0
ARC
8
bottom_labelLayer
10
315.0376566
20
154.2587189
40
3.7630208
50
85.81445
51
90.0685292
0
ARC
8
bottom_labelLayer
10
315.0012789
20
153.8505182
40
4.1713407
50
89.5621493
51
101.2961529
0
ARC
8
bottom_labelLayer
10
314.6871061
20
155.3545771
40
2.6349128
50
101.0032238
51
121.7840516
0
ARC
8
bottom_labelLayer
10
314.4482596
20
155.7809867
40
2.1467512
50
122.3597345
51
140.2884087
0
ARC
8
bottom_labelLayer
10
314.8779734
20
155.4659061
40
2.6788228
50
140.9765347
51
161.1699396
0
ARC
8
bottom_labelLayer
10
316.4967928
20
154.8898042
40
4.3970061
50
160.873164
51
172.5272498
0
ARC
8
bottom_labelLayer
10
319.2018435
20
154.5162183
40
7.1276931
50
172.3776652
51
180.1829453
0
ARC
8
bottom_labelLayer
10
320.943022
20
154.4769316
40
8.8688507
50
179.8932236
51
180.0007521
0
ARC
8
bottom_labelLayer
10
305.6708015
20
155.4886162
40
4.782344
50
359.6948153
51
8.147152
0
ARC
8
bottom_labelLayer
10
307.4322879
20
155.7492964
40
3.0017048
50
7.9864605
51
20.7949836
0
ARC
8
bottom_labelLayer
10
308.4059812
20
156.1222828
40
1.9590239
50
20.7071465
51
40.0217449
0
ARC
8
bottom_labelLayer
10
308.6240341
20
156.2651141
40
1.7004671
50
41.0610899
51
72.8993439
0
ARC
8
bottom_labelLayer
10
308.3090909
20
155.3274918
40
2.6893653
50
72.3601097
51
85.9562019
0
ARC
8
bottom_labelLayer
10
308.2024755
20
154.2256723
40
3.7960685
50
85.5237589
51
90.07935
0
ARC
8
bottom_labelLayer
10
308.1661097
20
153.9955317
40
4.0263255
50
89.5573115
51
101.483221
0
ARC
8
bottom_labelLayer
10
307.8570769
20
155.4434193
40
2.5459395
50
101.1546486
51
123.0655533
0
ARC
8
bottom_labelLayer
10
307.6470092
20
155.809348
40
2.1247927
50
123.7020404
51
142.3022159
0
ARC
8
bottom_labelLayer
10
308.1390743
20
155.4755241
40
2.7185185
50
143.0769734
51
161.3913907
0
ARC
8
bottom_labelLayer
10
310.1225775
20
154.7749976
40
4.8219637
50
161.0234665
51
171.4468871
0
ARC
8
bottom_labelLayer
10
313.4062022
20
154.2606322
40
8.1455941
50
171.3042099
51
178.3501498
0
ARC
8
bottom_labelLayer
10
316.5445627
20
154.120469
40
11.2867988
50
178.0976131
51
180.0252899
0
ARC
8
bottom_labelLayer
10
308.0431804
20
156.1235426
40
3.1860086
50
117.1209603
51
149.5423642
0
ARC
8
bottom_labelLayer
10
308.3683394
20
155.5456123
40
3.848711
50
93.8343339
51
117.5072086
0
ARC
8
bottom_labelLayer
10
308.458145
20
154.7501799
40
4.648511
50
89.9661644
51
94.2831456
0
ARC
8
bottom_labelLayer
10
308.5119586
20
154.0914711
40
5.3074648
50
77.557218
51
90.5513091
0
ARC
8
bottom_labelLayer
10
309.0044331
20
156.2096907
40
3.1329837
50
52.7027168
51
78.0053836
0
ARC
8
bottom_labelLayer
10
309.1798934
20
156.5361399
40
2.7675848
50
22.2097854
51
51.4970615
0
ARC
8
bottom_labelLayer
10
314.7569481
20
155.8992638
40
3.3847694
50
119.4041798
51
150.1828736
0
ARC
8
bottom_labelLayer
10
315.1324272
20
155.3282593
40
4.0668329
50
118.2584996
51
120.0630391
0
ARC
8
bottom_labelLayer
10
315.1312646
20
155.2866835
40
4.1029554
50
95.8635087
51
117.9693201
0
ARC
8
bottom_labelLayer
10
315.2701254
20
154.2826255
40
5.1160697
50
89.9196905
51
96.2617621
0
ARC
8
bottom_labelLayer
10
315.3147045
20
153.7637916
40
5.6350228
50
79.9361132
51
90.3803608
0
ARC
8
bottom_labelLayer
10
315.6901727
20
155.7972964
40
3.5672237
50
62.9723397
51
80.1665017
0
ARC
8
bottom_labelLayer
10
316.0826767
20
156.6025653
40
2.6715881
50
44.2290167
51
62.6229071
0
ARC
8
bottom_labelLayer
10
315.965938
20
156.5509958
40
2.7915635
50
19.5612111
51
43.3161264
0
ARC
8
bottom_labelLayer
10
314.2704981
20
155.9141873
40
4.6024761
50
7.5041886
51
19.9645351
0
ARC
8
bottom_labelLayer
10
311.4649888
20
155.5202116
40
7.4354492
50
359.7107475
51
7.6907119
0
ENDSEC
0
EOF